<?xml version="1.0" encoding="utf-8"?>

<!DOCTYPE svg PUBLIC "-//W3C//DTD SVG 1.1//EN" "http://www.w3.org/Graphics/SVG/1.1/DTD/svg11.dtd">
<svg version="1.1" id="Layer_1" xmlns="http://www.w3.org/2000/svg" xmlns:xlink="http://www.w3.org/1999/xlink" x="0px" y="0px"
	 viewBox="-19 -19.0099 1957 1958.0198" enable-background="new -19 -19.0099 1957 1958.0198" xml:space="preserve">
<g>
	<path fill="#CF6243" stroke="#CF6243" stroke-width="0.0938" d="M851.35,0h2.33c-0.53,9.24-1.9,18.41-3.5,27.53
		c-1.05,5.6-3.39,10.88-6.26,15.78c1.61-6.5,5.11-12.5,5.56-19.29c0.15-4.1,1.94-7.93,2.03-12.04c0.1-3.01,0.25-6.03,0.69-9.02
		c-0.57-0.42-1.71-1.27-2.27-1.69C850.28,0.95,850.99,0.32,851.35,0z"/>
	<path fill="#FF4001" stroke="#FF4001" stroke-width="0.0938" d="M826.49,35.52c7.27-11.72,13.34-24.57,23.44-34.25
		c0.56,0.42,1.7,1.27,2.27,1.69c-0.44,2.99-0.59,6.01-0.69,9.02c-0.09,4.11-1.88,7.94-2.03,12.04c-0.45,6.79-3.95,12.79-5.56,19.29
		c-5.3,9.54-11.53,19.94-21.98,24.45c8.69-1.02,16.24-5.93,23.81-9.95c5.24-2.69,10.31-6.78,16.54-6.37
		c2.01,5.35-0.63,10.88-2.29,15.96c-6.27,16.48-21.4,27.67-37.28,34.06c-1.93-0.74-3.9399-0.5-5.75,0.39
		c-7.55,3.36-15.64,5.13-23.61,7.14c0.48-1.02,0.97-2.05,1.48-3.07c-5.48-1.74-11.27-0.96-16.91-1.06
		c-3.61,0.11-7.74-0.27-10.46,2.6c-7.87,0.9-15.79,2.76-22.98,6.11c-11.43,3.47-21.69,9.63-32.12,15.26
		c0.35,0.27,0.7,0.55,1.07,0.82c-5.33,1.73-9.44,5.7-13.76,9.06c-31.48,25.34-52.72,63.14-57.7,103.27
		c-0.9,8.64-0.56,17.35-0.34,26.01c0.54,6.64,1.23,13.3,0.71,19.96c-2.48,4.23-4.2599,8.88-7.33,12.76c-4.65,4.9-11.42,6.63-18,6.58
		c-1.22-0.67-2.36-1.47-3.46-2.3c-1.12-1.28-2.25-2.56-3.49-3.72c2.17-7.59,11.24-12.54,9.64-21.29
		c-1.92-8.77-7.18-16.3-11.35-24.12c-2.78-4.73-5.6-9.49-7.23-14.76c-0.62-2.21-1.93-4.12-3.68-5.6c-2.57-2.54-6.36-2.24-8.92,0.12
		c-11.57,4.69-22.33,13.24-26.07,25.59c-1.79-9.74-0.81-20.57,5.4-28.63c7.02-9.09,17.92-14.02,28.34-18.11
		c-5.44-0.55-10.68,1.33-15.79,2.93c-9.62,3.23-18.81,9.09-23.95,18.07c-6.63,10.89-6.47,24.22-5.79,36.53
		c2,14.23,2.55,28.64,1.97,42.99c-0.14,2.97-0.62,5.93-1.56,8.75c-8.43,12.85-19.83,23.64-33.28,31.12
		c-6.03,2.07-12.53,1.93-18.81,1.56c-4.63-0.28-9.17-1.81-12.76-4.81c-3.8-3.46-5.53-8.75-9.91-11.6
		c1.92,10.65,10.49,19.44,20.82,22.35c0.38,0.14,1.12,0.42,1.5,0.56c-8,2.34-16.4,1.87-24.63,1.81c-10.99,0.08-21.4-5.1-29.51-12.23
		c-0.92-0.66-1.08-1.8-1.39-2.79c2.59-1.32,4.98-2.99,7.11-4.97c4.8-3.38,10.26-5.87,14.4-10.13c5.09-4.79,9.98-9.96,12.87-16.42
		c8.19-15.47,9.83-33.16,12.02-50.22c1.21-13.8,3.93-27.69,10.11-40.17c2.75-5.7,6.63-10.73,10.18-15.93
		c-7.54,3.62-13.16,10.19-18.12,16.74c-11.99,16.22-16.06,36.5-19.01,56.03c-2.5,17.5-6.3,36.26-19.14,49.33
		c-1.91,1.01-3.85,2-5.67,3.17c-4.95,3.27-9.95,6.47-15.25,9.14c-4.73,0.29-8.88,3.02-13.61,3.23c-6.75,0.67-13.75-0.49-19.67-3.89
		c-3.92-2.25-7.37-5.2-11.16-7.63c-2.03-1.93-3.37-4.43-4-7.14c4.99,6.47,12.34,11.81,20.86,11.53c12.65-0.39,25.4-5.99,33.57-15.79
		c12.19-13.42,16.09-32.08,17.71-49.61c0.78-17.95,0.41-35.94-0.01-53.9c-0.97-8.34-0.43-16.75-1.66-25.06
		c-0.33-8.67-0.29-17.35-0.92-26c0.63-8.89,0.25-17.86,1.86-26.66c0.53-6.44,3.08-12.44,5.18-18.48
		c5.98-13.26,13.18-25.94,21.2-38.06c12.54-18.25,28.72-34.47,48.57-44.63c9.2-5.36,19.5099-8.45,29.8199-10.84
		c23.16-5.3,47.14-4.18,70.67-2.84c5.02-0.08,9.94,1.03,14.92,1.52c27.58,2.8,55.04,6.82,82.72,8.51
		c13.36,1.68,26.88,0.98,40.32,1.15c6.01-0.16,12.07,0.11,18.06-0.74c6.44-0.91,13.16-0.25,19.37-2.5
		C813.06,37.27,819.98,37.34,826.49,35.52z"/>
	<path fill="#4C453A" stroke="#4C453A" stroke-width="0.0938" d="M587.98,17.59c26.52-0.46,52.82,3.67,78.9,7.99
		c46.05,7.78,92.62,16.54,139.53,12.87c-6.21,2.25-12.93,1.59-19.37,2.5c-5.99,0.85-12.05,0.58-18.06,0.74
		c-13.44-0.17-26.96,0.53-40.32-1.15c-27.68-1.69-55.14-5.71-82.72-8.51c-4.98-0.49-9.9-1.6-14.92-1.52
		c-23.53-1.34-47.51-2.46-70.67,2.84c-10.31,2.39-20.62,5.48-29.8199,10.84c-19.85,10.16-36.03,26.38-48.57,44.63
		c-8.02,12.12-15.22,24.8-21.2,38.06c-2.1,6.04-4.65,12.04-5.18,18.48c-1.61,8.8-1.23,17.77-1.86,26.66
		c0.63,8.65,0.59,17.33,0.92,26c1.23,8.31,0.69,16.72,1.66,25.06c0.42,17.96,0.79,35.95,0.01,53.9
		c-1.62,17.53-5.52,36.19-17.71,49.61c-8.17,9.8-20.92,15.4-33.57,15.79c-8.52,0.28-15.87-5.06-20.86-11.53
		c-4.19-10.84-5.12-23.05-1.21-34.11c-0.75,6.23-2.69,12.85-0.34,18.94c0.98-5.01-0.43-10.18,0.89-15.12
		c-0.2,8.62-1.47,17.99,3.04,25.82c3.17,6.57,10.01,11.34,17.42,11.22c5.38,0.1,10.31-2.21,15.1-4.35
		c9.83-4,16.97-12.81,21.05-22.39c5.61-13.18,6.62-27.71,6.89-41.86c-0.04-15.68-1.25-31.32-2.71-46.91
		c-2.3-26.88-5.86-54.05-2.22-80.97c1.81-15.07,9.33-28.48,16.31-41.66c14.36-26.05,34.03-50.16,60.34-64.79
		C539.71,22.74,564.04,17.95,587.98,17.59z"/>
	<path fill="#F6440A" stroke="#F6440A" stroke-width="0.0938" d="M816.97,101.85c1.8101-0.89,3.82-1.13,5.75-0.39
		c-5.24,2.31-10.68,4.12-16.15,5.78c-20.06,5.83-40.65,9.6-60.96,14.46c8.73-5.41,18.67-8.69,28.58-11.2
		c6.03-1.28,12.2-2.06,18.12-3.76c-8.28-1.04-16.61-0.18-24.84,0.72c2.72-2.87,6.85-2.49,10.46-2.6c5.64,0.1,11.43-0.68,16.91,1.06
		c-0.51,1.02-1,2.05-1.48,3.07C801.33,106.98,809.42,105.21,816.97,101.85z"/>
	<path fill="#793415" stroke="#793415" stroke-width="0.0938" d="M767.47,107.46c8.23-0.9,16.5601-1.76,24.84-0.72
		c-5.92,1.7-12.09,2.48-18.12,3.76c0.51-0.76,1.03-1.51,1.56-2.26c-5.92-0.14-11.69,1.31-17.45,2.44c-4.61,0.95-9,3.18-13.81,2.89
		C751.68,110.22,759.6,108.36,767.47,107.46z"/>
	<path fill="#4C453A" stroke="#4C453A" stroke-width="0.0938" d="M758.3,110.68c5.76-1.13,11.53-2.58,17.45-2.44
		c-0.53,0.75-1.05,1.5-1.56,2.26c-9.91,2.51-19.85,5.79-28.58,11.2c-6.63,2.52-12.45,6.67-18.27,10.62
		c-2.66,19.4-4.6201,39.09-3.03,58.67c0.71,6.65,1.57,13.7,5.39,19.38c4.97,6.84,13.01,10.25,19.32,15.6
		c6.64,5.13,11.55,12.72,12.4,21.18c0.78,7.61,0.33,16.32-4.91,22.39c-4.83,5.45-12.57,5.73-19.24,6.78
		c-0.53,20.55,3.99,40.99,1.81,61.54c-0.48,3.14-0.73,6.39-1.88,9.38c-1.87,2.12-4.13,3.93-6.56,5.36
		c-2.17,0.48-4.42,0.34-6.61,0.43c-25.52,0.46-50.8101,6.88-76.39,4.42c-11.62-1.29-24.19-4.79-31.97-14.1
		c-7.91-9.82-6.46-23.47-12.54-34.09c-6.99,0.98-14.06,3.59-21.14,1.63c-5.96-1.12-10.62-5.33-14.13-10.05
		c0.33,10.78-0.45,21.94-5.14,31.83c-5.08,11.18-14.11,20.6-25.34,25.68c-7.97,3.89-16.8,5.6-25.61,6.05
		c-4.39-0.4-8.74-1.12-13.13-1.48c-0.38-0.14-1.12-0.42-1.5-0.56c-4.04-3.91-10.16-5.14-13.27-10.18c0.59-0.14,1.77-0.43,2.36-0.57
		c3.59,3,8.13,4.53,12.76,4.81c6.28,0.37,12.78,0.51,18.81-1.56c15.25-4.13,28.77-15.72,33.28-31.12c0.94-2.82,1.42-5.78,1.56-8.75
		c0.58-14.35,0.03-28.76-1.97-42.99c-0.68-12.31-0.84-25.64,5.79-36.53c5.14-8.98,14.33-14.84,23.95-18.07
		c5.11-1.6,10.35-3.48,15.79-2.93c-10.42,4.09-21.32,9.02-28.34,18.11c-6.21,8.06-7.19,18.89-5.4,28.63
		c-0.09,4.7,0.96,9.3,1.73,13.92c2.36-9.22,5.15-19.84,14.01-24.94c7.22-4.49,17.53-1.87,21.47,5.77c2.93,6.65,2.55,14.2,1.49,21.22
		c-1.3799,5.9-3.3799,12.51-8.65,16.07c6.74-7.63,8.09-18.56,6.49-28.29c-0.72-4.62-2.88-9.51-7.34-11.59
		c-4.44-2.3-9.97-0.44-13.18,3.09c-4.15,4.46-5.43,10.69-6.66,16.45c-1.2,7.9-1.07,16.79,3.8,23.52c2.54,3.62,6.98,5.58,11.37,5.33
		c5.22,0.15,9.87-2.8,15.04-3.01c2.89-0.13,5.59,1.12,8.04,2.52c1.24,1.16,2.37,2.44,3.49,3.72c5.91,9.39,5.34,21.52,11.98,30.49
		c8.46,7.51,20.56,8.67,31.41,8.77c22.57-0.47,44.82-5.35,67.42-5.53c3.35-21.46-1.77-43.09,0.35-64.6
		c0.61-5.63,5.82-9.71,11.29-10.09c4.17-1.03,9.75,0.42,12.73-3.38c3-7.42,3.16-16.79-2.02-23.33
		c-6.34-8.04-16.43-12.25-22.3199-20.73c-5.4301-7.68-6.27-17.48-6.3-26.61c-0.2599-18.89,3.46-37.49,6.89-55.97
		c-29.87,22.14-52.76,53.37-65.83,88.1c-6.1,15.91-9.1,32.84-9.6299,49.85c-0.58,9.73-0.85,20.46-7.05,28.54
		c-3.5,4.75-9.37,6.69-14.99,7.41c2.12-1.32,4.32-2.51,6.47-3.79c5.7-3.19,8.2-9.93,8.39-16.17c0.52-6.66-0.17-13.32-0.71-19.96
		c-0.22-8.66-0.56-17.37,0.34-26.01c4.98-40.13,26.22-77.93,57.7-103.27c4.32-3.36,8.43-7.33,13.76-9.06
		c-0.37-0.27-0.72-0.55-1.07-0.82c10.43-5.63,20.69-11.79,32.12-15.26C749.3,113.86,753.69,111.63,758.3,110.68z"/>
	<path fill="#FFDCC9" stroke="#FFDCC9" stroke-width="0.0938" d="M659.16,222.11c13.07-34.73,35.96-65.96,65.83-88.1
		c-3.43,18.48-7.15,37.08-6.89,55.97c0.03,9.13,0.87,18.93,6.3,26.61c5.89,8.48,15.98,12.69,22.3199,20.73
		c5.1801,6.54,5.02,15.91,2.02,23.33c-2.98,3.8-8.56,2.35-12.73,3.38c-5.47,0.38-10.68,4.46-11.29,10.09
		c-2.12,21.51,3,43.14-0.35,64.6c-22.6,0.18-44.85,5.06-67.42,5.53c-10.85-0.1-22.95-1.26-31.41-8.77
		c-6.64-8.97-6.07-21.1-11.98-30.49c1.1,0.83,2.24,1.63,3.46,2.3c3.22,1.81,7.02,1.57,10.47,0.62c5.62-0.72,11.49-2.66,14.99-7.41
		c6.2-8.08,6.47-18.81,7.05-28.54C650.06,254.95,653.06,238.02,659.16,222.11z"/>
	<path fill="#4B453A" stroke="#4B453A" stroke-width="0.0938" d="M1029.25,178.22c5.48-6.38,12.95-12.43,21.84-12.1
		c24.1,0.01,48.1,2.97,71.86,6.8c47.3501,8,93.7201,20.66,139.9401,33.47c18.14,4.5,36.03,9.92,54.15,14.49
		c2.84,0.9,5.71,1.68,8.61,2.43c-4.62,0.01-9.0701-1.35-13.5801-2.13c-48.4199-9.67-96.49-21.11-145.1399-29.64
		c-34.3401-5.93-68.9801-11.17-103.9-11.43c-6.77-0.25-14.98-1.8-20.0601,3.93c-9.38,10.15-14.9299,23.11-20.27,35.69
		c-12.23,31.49-20.6,64.31-28.37,97.13c-12.74,56.27-23.17,113.1-30.08,170.39c-2.95,25.78-5.86,51.67-5.1,77.66
		c0.29,6.05,0.63,12.25,2.86,17.97c-2.64-4.85-3.36-10.42-4-15.82c-1.65-16.29-1.44-32.7-1.13-49.04
		c1.05-42.42,5.44-84.68,11.09-126.71l-0.29-0.99c-33.97-18.19-68.11-36.07-102.68-53.08c-3.26-2.1-7.03-3.29-10.16-5.59
		c38.5,17.28,75.94,36.8,113.7,55.63c4.68-32.68,10.48-65.22,17.92-97.39c6.19-26.4,13.56-52.6,23.8-77.74
		C1015.37,200.24,1020.96,188.29,1029.25,178.22z"/>
	<path fill="#BAC7CF" stroke="#BAC7CF" stroke-width="0.0938" d="M1042.97,184.04c5.0801-5.73,13.29-4.18,20.0601-3.93
		c34.9199,0.26,69.5599,5.5,103.9,11.43c48.6499,8.53,96.72,19.97,145.1399,29.64c4.51,0.78,8.9601,2.14,13.5801,2.13
		c3.3099,0.9,5.5,3.85,8.3199,5.66c4.8101,3.19,7.9401,8.09,11.36,12.6c-5.21,46.55-14.33,92.55-23.3999,138.47
		c-9.87,48.89-20.7101,97.6-32.4901,146.07c-10.36,42.27-21.0599,84.5-34.49,125.91c-5.5,16.25-10.99,32.63-19.09,47.81
		c-2.37,4.13-4.6799,8.54-8.52,11.52c-1.02,1.07-2.3199,0.03-3.2999-0.42c-38.0801-21.96-78.6901-39.05-119.36-55.53
		c-4.63-2.13-8.66-5.6-13.76-6.65c-7.4601-1.31-14.2201-4.81-21.2101-7.52c-34.6899-14.16-69.15-29.16-101.8199-47.58
		c-1.43-3.87-3.8-7.25-5.88-10.77c-2.23-5.72-2.57-11.92-2.86-17.97c-0.76-25.99,2.15-51.8799,5.1-77.66
		c6.91-57.29,17.34-114.12,30.08-170.39c7.77-32.82,16.14-65.64,28.37-97.13C1028.04,207.15,1033.59,194.19,1042.97,184.04
		 M1042.71,203.88c-18.85,56.18-38.47,112.48-48.4999,171.07c-4.86,27.72-7.27,55.84-7.48,83.98c-0.95,16.67-2.82,33.35-2.37,50.09
		c0.52,5.75,4.19,10.58,7.56,15.04c5.31,5.73,11.12,11.04,17.7,15.3c2.5,2.08,6.16,3.12,7.45,6.37c-6.29-2.6-12.5-5.44-18.96-7.56
		c28.62,12.63,56.77,26.31,85.42,38.88c6.74,3.17,13.6,6.08,20.4,9.12c37.88,16.49,75.3999,33.85,113.98,48.69
		c5.24,1.91,10.52,4.08,16.13,4.55c3.34,0.14,5.35-3.11,6.35-5.86c4.0599-11.51,7.04-23.35,10.16-35.14
		c10.1599-39.61,19.1899-79.5,27.88-119.46c10.63-49,20.71-98.13,29.23-147.55c3.89-23.71,8.3199-47.4,9.85-71.41
		c0.27-5.66,0.5-13.05-5.1801-16.25c-14.37-8.56-30.64-13.24-46.84-16.95c-48.86-10.36-98.9399-12.26-148.52-17.11
		c-22.52-2.16-45.12-4.62-67.11-10.12C1047.3199,200.35,1043.97,201.34,1042.71,203.88z"/>
	<path fill="#4B453A" stroke="#4B453A" stroke-width="0.0938" d="M1042.71,203.88c1.26-2.54,4.61-3.53,7.15-4.32
		c21.99,5.5,44.59,7.96,67.11,10.12c49.5801,4.85,99.66,6.75,148.52,17.11c16.2,3.71,32.47,8.39,46.84,16.95
		c5.6801,3.2,5.4501,10.59,5.1801,16.25c-1.53,24.01-5.96,47.7-9.85,71.41c-8.52,49.42-18.6,98.55-29.23,147.55
		c-8.6901,39.96-17.7201,79.85-27.88,119.46c-3.12,11.79-6.1001,23.63-10.16,35.14c-1,2.75-3.01,6-6.35,5.86
		c-5.61-0.47-10.89-2.64-16.13-4.55c-38.5801-14.84-76.1-32.2-113.98-48.69c-6.8-3.04-13.66-5.95-20.4-9.12
		c1.1799-0.89,2.37-1.79,3.58-2.66c38.1,15.53,76.16,31.18,114.67,45.68c9.99,3.53,19.83,7.65,30.1799,10.06
		c5.88-18.74,9.73-38.04,14.05-57.18c10.6-48.6,20.24-97.4,29.6799-146.23c8.41-44.14,16.64-88.32,23.41-132.75
		c1.8201-12.9,3.76-25.84,4.05-38.89c-17.3201-9.61-36.9401-13.85-56.2001-17.66c-42.98-7.79-86.6499-10.44-129.97-15.64
		c-16.8099-1.97-33.64-4.02-50.23-7.43c-5.2-1.02-10.27-2.62-15.51-3.43c-8.01,22.65-16.53,45.12-24.4,67.83
		c-10.47,30.61-19.97,61.61-26.83,93.24c-7.54,34.44-11.63,69.69-11.21,104.96c-0.17,4.1,0.78,8.29-0.36,12.31
		c-1.21-10.06-1.25-20.23-1.71-30.33c0.21-28.14,2.62-56.26,7.48-83.98C1004.24,316.36,1023.86,260.06,1042.71,203.88z"/>
	<path fill="#77C794" stroke="#77C794" stroke-width="0.0938" d="M1051.24,210.92c5.24,0.81,10.3101,2.41,15.51,3.43
		c16.59,3.41,33.42,5.46,50.23,7.43c43.3201,5.2,86.99,7.85,129.97,15.64c19.26,3.81,38.88,8.05,56.2001,17.66
		c-0.29,13.05-2.23,25.99-4.05,38.89c-6.77,44.43-15,88.61-23.41,132.75c-9.4399,48.83-19.08,97.63-29.6799,146.23
		c-4.3201,19.14-8.17,38.44-14.05,57.18c-10.35-2.41-20.1899-6.53-30.1799-10.06c-38.51-14.5-76.5701-30.15-114.67-45.68
		c-23.36-9.52-46.6899-19.14-70.04-28.66c-1.29-3.25-4.95-4.29-7.45-6.37c-6.58-4.26-12.39-9.57-17.7-15.3
		c-3.37-4.46-7.04-9.29-7.56-15.04c-0.45-16.74,1.42-33.42,2.37-50.09c0.46,10.1,0.5,20.27,1.71,30.33
		c1.14-4.02,0.19-8.21,0.36-12.31c-0.42-35.27,3.67-70.52,11.21-104.96c6.86-31.63,16.36-62.63,26.83-93.24
		C1034.71,256.04,1043.23,233.57,1051.24,210.92z"/>
	<path fill="#4C453A" stroke="#4C453A" stroke-width="0.0938" d="M491.68,228.61c4.96-6.55,10.58-13.12,18.12-16.74
		c-3.55,5.2-7.43,10.23-10.18,15.93c-6.18,12.48-8.9,26.37-10.11,40.17c-2.19,17.06-3.83,34.75-12.02,50.22
		c-2.89,6.46-7.78,11.63-12.87,16.42c-4.14,4.26-9.6,6.75-14.4,10.13c-5.78,1.76-11.25,4.67-17.35,5.26
		c4.71-3.26,9.67-6.15,14.11-9.79c2.47-1.76,4.53-4,6.55-6.24c12.84-13.07,16.64-31.83,19.14-49.33
		C475.62,265.11,479.69,244.83,491.68,228.61z"/>
	<path fill="#4C453A" stroke="#4C453A" stroke-width="0.0938" d="M1345.33,241.57c0.52-5.5,1.0901-10.99,1.1901-16.52
		c0.4,5.16-0.0601,10.34-0.16,15.5c-1.41,34.37-6.4299,68.44-10.3099,102.57c-10.88,73.25-23.62,146.29-41,218.3
		c53,29.16,106.0299,58.26,158.88,87.69c138.5499,77.23,276.9399,154.77,413.45,235.56c15.3099,9.22,30.75,18.25,45.59,28.23
		c2.76,1.75,5.15,4.23,6.03,7.48v3.42c-1.61,2.74-4.11,4.73-7.15,5.64c-0.11-0.49-0.34-1.48-0.45-1.97
		c-173.64,41.79-349.05,76.28-521.4,123.35c-70.79,19.37-141.04,40.8401-210.02,65.9301c-0.33-0.23-0.99-0.7-1.3199-0.9399
		c18.35-8.1101,36.4299-16.88,55.3099-23.7101c41.4-15.4299,83.5701-28.71,125.9601-41.12
		C1492.34,1012.47,1626.71,981.24,1761.1,950.55c44.75-10.38,89.7101-19.96,134.14-31.68c-14.59-9.65-29.71-18.47-44.71-27.46
		c-67.42-40.15-135.42-79.3-203.36-118.55c-68.75-39.66-137.63-79.08-206.5701-118.41c-49.1799-27.97-98.27-56.09-147.64-83.71
		c-8.84,35.08-18.21,70.11-30.86,104.04c-5.5699,14.2-11.1699,28.68-20.3099,41.02c-3.9501,5.22-9.74,10.38-16.76,9.63
		c-5.38-0.93-9.6-4.72-14.3101-7.21c-38.98-23.0099-80.2999-41.67-121.4-60.49c-2.5299-1.33-5.1799,0.27-7.59,1.04
		c-11.78,4.65-24.04,8.32-36.66,9.67c-4.4299,0.27-9.0099,1.53-13.36,0.19c11.29-8.37,22.92-17.04,36.9-20.25
		c-15.34-7.78-31.09-14.75-46.29-22.83c-17.82-9.15-35.23-19.07-52.25-29.62c-2.52-1.5-5-3.06-7.25-4.92
		c1.7,0.83,3.38,1.72,5.07,2.64c32.67,18.42,67.13,33.42,101.8199,47.58c6.99,2.71,13.75,6.21,21.2101,7.52
		c5.1,1.05,9.13,4.52,13.76,6.65c40.6699,16.48,81.2799,33.5699,119.36,55.53c0.98,0.45,2.2799,1.49,3.2999,0.42
		c3.8401-2.98,6.15-7.39,8.52-11.52c8.1-15.18,13.59-31.56,19.09-47.81c13.4301-41.41,24.13-83.64,34.49-125.91
		c11.78-48.47,22.6201-97.18,32.4901-146.07C1331,334.12,1340.12,288.12,1345.33,241.57z"/>
	<path fill="#EE7C51" stroke="#EE7C51" stroke-width="0.0938" d="M588.53,235.62c2.56-2.36,6.35-2.66,8.92-0.12
		C594.48,235.41,591.5,235.38,588.53,235.62z"/>
	<path fill="#FFFEFD" stroke="#FFFEFD" stroke-width="0.0938" d="M562.46,261.21c3.74-12.35,14.5-20.9,26.07-25.59
		c2.97-0.24,5.95-0.21,8.92-0.12c1.75,1.48,3.06,3.39,3.68,5.6c1.63,5.27,4.45,10.03,7.23,14.76c-0.17,0.77-0.51,2.3-0.68,3.06
		c-2.66-1.03-5.33-2.01-8.01-2.96c-3.94-7.64-14.25-10.26-21.47-5.77c-8.86,5.1-11.65,15.72-14.01,24.94
		C563.42,270.51,562.37,265.91,562.46,261.21z"/>
	<path fill="#BEC5C8" stroke="#BEC5C8" stroke-width="0.0938" d="M1336.05,343.12c3.88-34.13,8.8999-68.2,10.3099-102.57
		c0.1801,6.15,1.16,12.26,0.9401,18.42c-1,20.48-3.9501,40.79-7.03,61.03C1338.83,327.7,1338.29,335.58,1336.05,343.12z"/>
	<path fill="#FFDCC9" stroke="#FFDCC9" stroke-width="0.0938" d="M578.48,256.46c3.21-3.53,8.74-5.39,13.18-3.09
		c4.46,2.08,6.6201,6.97,7.34,11.59c1.6,9.73,0.25,20.66-6.49,28.29c5.27-3.56,7.27-10.17,8.65-16.07
		c1.06-7.02,1.44-14.57-1.49-21.22c2.68,0.95,5.35,1.93,8.01,2.96c0.17-0.76,0.51-2.29,0.68-3.06c4.17,7.82,9.43,15.35,11.35,24.12
		c1.6,8.75-7.47,13.7-9.64,21.29c-2.45-1.4-5.15-2.65-8.04-2.52c-5.17,0.21-9.82,3.16-15.04,3.01c-4.39,0.25-8.83-1.71-11.37-5.33
		c-4.87-6.73-5-15.62-3.8-23.52C573.05,267.15,574.33,260.92,578.48,256.46z"/>
	<path fill="#793415" stroke="#793415" stroke-width="0.0938" d="M387.69,286.48c1.54-2.34,3.28-4.54,5.29-6.5
		c-1.84,2.63-3.97,5.09-5.28,8.04c-1.47,4.15-2.89,8.33-4.19,12.54c-1.32,4.94,0.09,10.11-0.89,15.12
		c-2.35-6.09-0.41-12.71,0.34-18.94c1.33-4.19,2.35-8.46,3.65-12.65C386.88,284.69,387.42,285.88,387.69,286.48z"/>
	<path fill="#FE4102" stroke="#FE4102" stroke-width="0.0938" d="M383.51,300.56c1.3-4.21,2.72-8.39,4.19-12.54
		c-0.54,10.27,2.56,20.6,7.58,29.5c4.85,8.55,13.41,16.08,23.79,15.73c-4.79,2.14-9.72,4.45-15.1,4.35
		c-7.41,0.12-14.25-4.65-17.42-11.22C382.04,318.55,383.31,309.18,383.51,300.56z"/>
	<path fill="#FFD9C2" stroke="#FFD9C2" stroke-width="0.0938" d="M635.02,300.71c3.07-3.88,4.85-8.53,7.33-12.76
		c-0.19,6.24-2.69,12.98-8.39,16.17l-1.12,0.11C633.53,303.04,634.25,301.86,635.02,300.71z"/>
	<path fill="#D16239" stroke="#D16239" stroke-width="0.0938" d="M617.02,307.29c6.58,0.05,13.35-1.68,18-6.58
		c-0.77,1.15-1.49,2.33-2.18,3.52l1.12-0.11c-2.15,1.28-4.35,2.47-6.47,3.79C624.04,308.86,620.24,309.1,617.02,307.29z"/>
	<path fill="#FFDCC9" stroke="#FFDCC9" stroke-width="0.0938" d="M567.86,300.84c3.51,4.72,8.17,8.93,14.13,10.05
		c7.08,1.96,14.15-0.65,21.14-1.63c6.08,10.62,4.63,24.27,12.54,34.09c7.78,9.31,20.35,12.81,31.97,14.1
		c-4.07,2.67-8.95,4.18-12.25,7.92c-3.07,2.66-5.08,6.84-9.09,8.2c3.79-4.8,7.63-9.56,11.53-14.28
		c-10.21,0.65-21.16,3.44-28.08,11.51c-6.55,7.08-8.16,16.99-9.25,26.21c-14.93-11.68-33.33-17.25-50.92-23.55
		c-6.33-2.14-12.44-4.85-18.66-7.28c18.42,9.72,39.04,14.84,56.65,26.16c13.32,8,23.55,20.23,31.54,33.38
		c-5.7-8.1-12.28-15.6-19.84-22.02c-6.9-6-13.59-12.73-22.05-16.47c-17.93-5.29-36.41-9.06-53.67-16.44
		c-4.16-1.69-7.95-4.09-11.78-6.39c8.81-0.45,17.64-2.16,25.61-6.05c11.23-5.08,20.26-14.5,25.34-25.68
		C567.41,322.78,568.19,311.62,567.86,300.84z"/>
	<path fill="#C3B6A3" stroke="#C3B6A3" stroke-width="0.0938" d="M739.08,337.86c28.94-6.53,57.91-13.03,86.92-19.19
		c5.61,1.68,10.64,5,16.14,7.08l-1.69,0.23c3.05,1.83,6.42,4.4,10.2,3.55c0.19,0.1,0.59,0.3,0.78,0.4l0.04,0.48l0.38,0.15l0.04-0.41
		c0.44,0.22,1.32,0.67,1.76,0.89l-0.17,0.33c0.12-0.04,0.37-0.13,0.49-0.17c0.22,0.11,0.65,0.33,0.8701,0.45
		c3.1299,2.3,6.9,3.49,10.16,5.59c0.89,0.92,1.76,1.98,2.96,2.57c28.79,14.43,57.28,29.47,85.87,44.3c4.7,2.4,9.25,5.14,14.14,7.2
		c-5.65,42.03-10.04,84.29-11.09,126.71c-0.31,16.34-0.52,32.75,1.13,49.04c0.64,5.4,1.36,10.97,4,15.82
		c2.08,3.52,4.45,6.9,5.88,10.77c-1.69-0.92-3.37-1.81-5.07-2.64c2.25,1.86,4.73,3.42,7.25,4.92
		c17.02,10.55,34.43,20.47,52.25,29.62c15.2,8.08,30.95,15.05,46.29,22.83c-13.98,3.21-25.61,11.88-36.9,20.25
		c-0.96,0.64-1.96,1.24-2.8999,1.89c-37.9001-17.67-75.66-35.63-113.1801-54.09c-22.05-10.72-43.98-21.72-65.38-33.68
		c-5.82-3.28-11.59-6.64-16.99-10.57c3.46,3.2,7.35,5.88,11.27,8.49c-4.82-0.01-9.09-2.46-13.66-3.58
		c-12.26-2.76-24.96-4.63-37.49-2.6801c-8.88,1.64-17.23,5.23-25.62,8.42c-6.34,3.3-12.38,7.3-17.8,11.96
		c0.55,0.26,1.65,0.77,2.2,1.03c-18.37-1.64-36.53,4.63-51.84,14.44c-4.63,2.61-8.58,6.25-13.24,8.77
		c-5.5-10.3-9.23-21.47-12.71-32.59c-4.12-13.9-7.7-27.98-10.22-42.25c-1.36-21.95-5.98-43.79-13.87-64.32
		c-0.91-2.48-2.08-4.85-3.29-7.19c-5.41-14.09-10.64-28.34-18.35-41.39c-6.78-11.81-14.89-23.01-25.24-31.97
		c2.67-3.21,7.27-5.28,8.19-9.63c4.99-5.28,10.1-10.47,14.71-16.12c4.01-1.36,6.02-5.54,9.09-8.2c3.3-3.74,8.18-5.25,12.25-7.92
		c25.58,2.46,50.87-3.96,76.39-4.42c2.1899-0.09,4.4399,0.05,6.61-0.43c2.43-1.43,4.69-3.24,6.56-5.36
		C738.35,344.25,738.6,341,739.08,337.86z"/>
	<path fill="#FFD9C2" stroke="#FFD9C2" stroke-width="0.0938" d="M517.8,354.86c13.45-7.48,24.85-18.27,33.28-31.12
		C546.57,339.14,533.05,350.73,517.8,354.86z"/>
	<path fill="#A5A097" stroke="#A5A097" stroke-width="0.0938" d="M840.45,325.98l1.69-0.23c2.89,1.13,5.74,2.37,8.51,3.78
		C846.87,330.38,843.5,327.81,840.45,325.98z"/>
	<path fill="#7F7B72" stroke="#7F7B72" stroke-width="0.0938" d="M851.43,329.93l0.46,0.22l-0.04,0.41l-0.38-0.15L851.43,329.93z"/>
	<path fill="#868279" stroke="#868279" stroke-width="0.0938" d="M853.65,331.04l0.3199,0.16c-0.12,0.04-0.37,0.13-0.49,0.17
		L853.65,331.04z"/>
	<path fill="#FFDCC9" stroke="#FFDCC9" stroke-width="0.0938" d="M447.86,337.14c1.82-1.17,3.76-2.16,5.67-3.17
		c-2.02,2.24-4.08,4.48-6.55,6.24c-0.7-0.04-2.09-0.11-2.79-0.15C445.39,339.06,446.59,338.05,447.86,337.14z"/>
	<path fill="#66AE4A" stroke="#66AE4A" stroke-width="0.0938" d="M432.61,346.28c5.3-2.67,10.3-5.87,15.25-9.14
		c-1.27,0.91-2.47,1.92-3.67,2.92c0.7,0.04,2.09,0.11,2.79,0.15c-4.44,3.64-9.4,6.53-14.11,9.79c6.1-0.59,11.57-3.5,17.35-5.26
		c-2.13,1.98-4.52,3.65-7.11,4.97c0.31,0.99,0.47,2.13,1.39,2.79c8.11,7.13,18.52,12.31,29.51,12.23
		c8.23,0.06,16.63,0.53,24.63-1.81c4.39,0.36,8.74,1.08,13.13,1.48c3.83,2.3,7.62,4.7,11.78,6.39
		c17.26,7.38,35.74,11.15,53.67,16.44c8.46,3.74,15.15,10.47,22.05,16.47c7.56,6.42,14.14,13.92,19.84,22.02
		c9.17,14.17,15.09,30.19,19.9,46.3c12.45,43.32,14.79,88.96,29.12,131.81c4.3,13.19,9.85,26.04,17.33,37.76
		c10.28,16.2,22.85,30.85,32.71,47.33c5.48,9.53,10.9,19.78,11.11,31.03c0.3,9.31-5.6201,17.17-11.1,24.12
		c-16.78,22.3-36.61,42.34-58.91,59.14c-17.42,12.93-36.44,23.99-56.99,31.11c-4.38,1.61-8.84-0.62-12.19-3.37
		c-12.13-9.54-20.22-23.01-28.21-35.96c-9.01-15.47-17.4-31.42-23.43-48.31c-14.78-39.32-28.56-79.61-32.66-121.67
		c-2.57-25.08-0.61-50.71,6.64-74.91c5.49-18.38,14.36-35.65,25.27-51.39c4.14-6.21,9.1-11.8,13.56-17.76
		c-4.37,3.38-7.69,7.85-11.22,12.03c-12.67,15.68-23.22,33.22-30.18,52.17c-14.42,37.48-13.91,78.94-6.64,117.92
		c4.49,24.32,11.42,48.12,19.07,71.61c9.03,29.37,21.78,57.66,38.77,83.29c7.39,10.72,15.58,21.55,27.15,28.04
		c1.68,6.06,3.42,12.14,4.46,18.36c-0.57,0.15-1.72,0.44-2.3,0.59c4.06,10.71,7.87,21.55,12.65,31.98c4.09,9,8.12,18.1,13.76,26.27
		c-2.73,11.43-6.78,22.5-11.75,33.13c-5.98,9.95-10.88,20.5099-16.21,30.79c-0.57,1.26-1.1,2.54-1.64,3.84
		c-0.83,0.6201-1.69,1.23-2.38,2.02c-4.59,5.16-7.62,11.46-11.9,16.87c-30.05,41.1-71.06,74.97-118.9,93.12
		c-20.46,7.55-42.1,12.5801-64,12.3101c-13.7-0.4-27.42-2.4-40.43-6.8101c-8.63-2.79-16.64-7.23-25.43-9.58
		c-26.89-7.5-54.44-12.52-81.01-21.1901c-12.35-4.12-24.75-8.7999-35.45-16.38c-5.22-3.8999-10.67-9.24-10.5-16.2699
		c-0.31-41.0101,11.11-80.8201,21.96-120.0001c10.7-37.76,21.21-75.98,23.52-115.34c5.31-84.9,2.84-170.52,16.73-254.71
		c6.37-37.69,16.36-75.06,33.08-109.55c1.25-2.6,2.53-5.18,3.64-7.83c7.15-12.51,14.36-25.02,23.03-36.56
		c11.83-15.91,25.23-30.71,40.35-43.56c0.98-0.81,1.54-1.95,2.14-3.03c4.87-4.44,10.81-7.4,16.56-10.52
		c3.38-1.83,6.92-3.37,10.61-4.44c6.57,6.69,15.72,11.35,25.18,11.82C420.45,351.23,427.32,350.34,432.61,346.28z"/>
	<path fill="#B47626" stroke="#B47626" stroke-width="0.0938" d="M388.17,337.99c3.79,2.43,7.24,5.38,11.16,7.63
		c5.92,3.4,12.92,4.56,19.67,3.89c4.73-0.21,8.88-2.94,13.61-3.23c-5.29,4.06-12.16,4.95-18.63,5.06
		c-9.46-0.47-18.61-5.13-25.18-11.82C388.64,339.13,388.33,338.37,388.17,337.99z"/>
	<path fill="#FFFEFD" stroke="#FFFEFD" stroke-width="0.0938" d="M865,337.24c34.57,17.01,68.71,34.89,102.68,53.08l0.29,0.99
		c-4.89-2.06-9.4399-4.8-14.14-7.2c-28.59-14.83-57.08-29.87-85.87-44.3C866.76,339.22,865.89,338.16,865,337.24z"/>
	<path fill="#99370E" stroke="#99370E" stroke-width="0.0938" d="M476.32,340.01c4.38,2.85,6.11,8.14,9.91,11.6
		c-0.59,0.14-1.77,0.43-2.36,0.57c3.11,5.04,9.23,6.27,13.27,10.18C486.81,359.45,478.24,350.66,476.32,340.01z"/>
	<path fill="#444E31" stroke="#444E31" stroke-width="0.0938" d="M323.02,390.07c11.9-12.85,24.36-25.32,38.61-35.59
		c-0.6,1.08-1.16,2.22-2.14,3.03c-15.12,12.85-28.52,27.65-40.35,43.56c-8.67,11.54-15.88,24.05-23.03,36.56
		c0.54-3.17,1.77-6.15,3.05-9.08c-1.27,0.29-2.54,0.58-3.81,0.86C302.6,415.02,312.48,402.18,323.02,390.07z"/>
	<path fill="#4B453A" stroke="#4B453A" stroke-width="0.0938" d="M609.75,370.8c6.92-8.07,17.87-10.86,28.08-11.51
		c-3.9,4.72-7.74,9.48-11.53,14.28c-4.61,5.65-9.72,10.84-14.71,16.12c-3.16,2.78-6.27,5.6-9.4,8.41c0.31,0.31,0.91,0.92,1.21,1.22
		c10.35,8.96,18.46,20.16,25.24,31.97c7.71,13.05,12.94,27.3,18.35,41.39c2.89,12.08,6.72,23.92,9.23,36.09
		c2.83,11.77,4.67,23.76,7.9301,35.42c2.52,14.27,6.1,28.35,10.22,42.25c3.48,11.12,7.21,22.29,12.71,32.59
		c4.66-2.52,8.61-6.16,13.24-8.77c15.31-9.81,33.47-16.08,51.84-14.44c4.4,0.62,8.8,1.45,13.01,2.91c4.69,1.77,9.1,4.2,13.14,7.16
		c-12.95-2.79-26.2-0.12-38.66,3.61c-16.75,5-33.45,10.17-50.45,14.26c11.06,20.17,27.33,36.81,39.39,56.33
		c5.89-14.4901,14.02-28.09,24.3-39.9c-4.11,3.05-8.52,5.91-13.59,7.03c-7.02,1.9-14.34,0.57-21.29-0.91
		c6.28-5.59,12.73-11.66,21.03-14.01c7.12-2.04,14.6-1.41,21.85-0.56c9.55-9.56,20.5-17.55,31.65-25.11
		c2.38-2.29,5.62-1.34,8.41-0.5c-1.53,0.35-3.07,0.68-4.57,1.08c-9.9,14.33-19.67,28.87-31.77,41.48
		c-10.76,11.98-23.4,22.08-34.47,33.75c7.47,12.52,14.26,26.54,12.95,41.53c-0.55,9.4301-4.98,18.08-10.75,25.3701
		c-17.72,23.94-38.47,45.74-62.19,63.8199c-19.27,14.6801-40.7,26.67-63.66,34.4901c-6.02,2.05-12.69,1.25-18.28-1.64
		c-11.57-6.49-19.76-17.32-27.15-28.04c-16.99-25.6299-29.74-53.92-38.77-83.29c-7.65-23.49-14.58-47.29-19.07-71.61
		c-7.27-38.98-7.78-80.44,6.64-117.92c1.52,1.2599,2.28,3.03,2.57,4.95c-7.25,24.2-9.21,49.83-6.64,74.91
		c4.1,42.06,17.88,82.35,32.66,121.67c6.03,16.89,14.42,32.84,23.43,48.31c7.99,12.95,16.08,26.42,28.21,35.96
		c3.35,2.75,7.81,4.98,12.19,3.37c20.55-7.12,39.5699-18.18,56.99-31.11c22.3-16.8,42.13-36.84,58.91-59.14
		c5.48-6.95,11.4-14.81,11.1-24.12c-0.21-11.25-5.63-21.5-11.11-31.03c-9.86-16.48-22.43-31.13-32.71-47.33
		c-7.48-11.72-13.03-24.57-17.33-37.76c-14.33-42.85-16.67-88.49-29.12-131.81c-4.81-16.11-10.73-32.13-19.9-46.3
		c-7.99-13.15-18.22-25.38-31.54-33.38c-17.61-11.32-38.23-16.44-56.65-26.16c6.22,2.43,12.33,5.14,18.66,7.28
		c17.59,6.3,35.99,11.87,50.92,23.55C601.59,387.79,603.2,377.88,609.75,370.8z"/>
	<path fill="#FFDCC9" stroke="#FFDCC9" stroke-width="0.0938" d="M602.19,398.1c3.13-2.81,6.24-5.63,9.4-8.41
		c-0.92,4.35-5.52,6.42-8.19,9.63C603.1,399.02,602.5,398.41,602.19,398.1z"/>
	<path fill="#4B453A" stroke="#4B453A" stroke-width="0.0938" d="M295.35,429.41c1.27-0.28,2.54-0.57,3.81-0.86
		c-1.28,2.93-2.51,5.91-3.05,9.08c-1.11,2.65-2.39,5.23-3.64,7.83c-16.72,34.49-26.71,71.86-33.08,109.55
		c-13.89,84.19-11.42,169.81-16.73,254.71c-2.31,39.36-12.82,77.58-23.52,115.34c-10.85,39.18-22.27,78.99-21.96,120.0001
		c-0.17,7.0299,5.28,12.37,10.5,16.2699c10.7,7.5801,23.1,12.26,35.45,16.38c26.57,8.67,54.12,13.6901,81.01,21.1901
		c8.79,2.35,16.8,6.7899,25.43,9.58c13.01,4.41,26.73,6.41,40.43,6.8101c21.9,0.27,43.54-4.76,64-12.3101
		c47.84-18.15,88.85-52.02,118.9-93.12c4.28-5.41,7.31-11.71,11.9-16.87c-0.22,3.39-2.09,6.25-3.92,9
		c-20.84,33.71-48.72,63.13-81.52,85.4c-16.68,11.25-34.68,20.6799-53.68,27.3199c-14.61,5.5601-30.16,8.38-45.7,9.6801
		c-12.46,0.28-25.07,0.76-37.35-1.8c-10.95-1.76-21.52-5.2799-31.77-9.4299c-22.44-7.5-45.94-10.92-68.81-16.8201
		c-14.56-3.5399-29.03-7.6699-42.87-13.4399c-2.84-1.36-5.66-2.74-8.67-3.6801l-1.23-0.62c-4.98-3.4399-10.2-6.5499-14.78-10.5399
		c-0.08,6.99-0.17,14.0099,0.87,20.95c0.49,10.99,0.26,21.99,0.39,32.99c0.58,5.98-0.18,11.97-0.09,17.97
		c-0.08,7,0.08,14.02-1.02,20.9601c-0.13,12.75-2.38,25.33-3.54,38.0099c-0.53,5.8101-2.6,11.3101-3.5,17.0601
		c-2.49,12.14-5.61,24.2-10.01,35.8c-2.82,5.97-5.97,12.5599-12.07,15.7999c-2.37,1.39-4.9,2.49-7.45,3.52
		c7.72,0.83,15.27,4.89,19.23,11.73c2.54,3.86,2.7,8.62,3.79,12.99c1.89,8.23,1.37,16.7001,1.73,25.0701
		c-0.25,17.73-7.29,35.5299-20.07,47.96c-10.45,10.36-24.36,16.85-38.8,19.22c-21.98,3.78-44.81-0.65-64.79-10.1899
		c-13.12-6.4301-26.08-14.35-34.77-26.41c-15.21-20.66-22.92-46.28-24.4-71.71v-14.52c0.77-41.49,2.8-82.95,5.92-124.33
		c5.39-67.02,13.14-133.9901,27.14-199.8101c0.47,0.75,0.94,1.5,1.41,2.28c-3.24,17.04-5.3,34.27-7.77,51.43
		c-1.8,9.3-2.07,18.82-2.94,28.24C16.49,1096.14,13.45,1169.58,12.84,1243c0.21,16.1-0.83,32.3199,1.72,48.3
		c3.23,18.26,9.74,36.2999,20.88,51.2699c8.08,11.04,20.45,17.7001,32.54,23.4501c18.96,8.46,40.9,11.75,61.12,6.14
		c16.1-4.38,30.3-16.26,36.11-32.0701c6.4-15.8199,5.12-33.52,1.27-49.7899c-1.07-4.0801-5.62-5.54-9.19-6.6901
		c-12.84-3.26-26.28-2.5499-39.24-5.23c-10.12-1.74-21.06-5.64-26.76-14.76c-4.04-6.16-4.52-13.6801-5.07-20.8
		c-2.74-25.5099-3.39-51.2-3.02-76.85c-0.01-4.77,0.76-9.6799-0.78-14.2999c-7.58-23.0701-13.29-46.74-17.49-70.65
		c-11.02-61.39-13.85-123.85-16.23-186.05c-0.39-7.06,0.27-14.14-0.47-21.18c-0.9-21.59-0.2-43.23-1.64-64.79
		c-0.5-8.34-0.32-16.69-0.63-25.03c-0.22-16.36-1.71-32.65-2.68-48.96c-1.34-11.06-1.82-22.22-3.8-33.19
		c4.41,10.13,6.19,21.23,6.54,32.22c1.21,25.7,4.48,51.26,5.47,76.97c2.21,39.24,3.67,78.54,6.8,117.73
		c3.18,42.91,7,85.84,14.29,128.28c3.6,19.45,7.02,39.02,12.73,57.98c2.27-41.36,6.05-82.65,7.25-124.06
		c0.48,9.33,0.08,18.67,0.1,28.01c0.36,37.36-1.8,74.68-2.09,112.04c-0.08,4.5601,1.76,8.8,3.16,13.0601
		c6.55,20.0499,14.88,39.45,23.69,58.59c6.57,13.86,13.84,27.5,23.11,39.77c4.19,5.1,8.69,10.45,14.86,13.15
		c2.61,1.0499,4.31-1.7301,5.55-3.53c5.21-8.91,7.74-19.0601,10.2-28.99c4.91-19.39,7.59-39.27,9.24-59.17
		c3.49-48.58,1.36-97.41-3.39-145.83c-6.86-76.19-19.32-152.36-44.04-224.96c-17.61-51.56-41.5-101.01-71.41-146.58
		c-2.73-4.59-6.33-8.66-8.58-13.54c9.55,11.7,17.61,24.54,26.05,37.05c2.48,3.46,4.12,7.59,7.52,10.32
		c5.1,9.6,10.17,19.22,15.49,28.7c11.12,20.4399,21.05,41.52,29.93,63.03c29.22,71.44,45.59,147.49,55.16,223.89
		c10.34-61.46,36-119.59,41.42-181.99c5.45-72.3,5.98-145,15.49-216.96c5.31-39.61,13.38-79.1,27.62-116.55
		C278.22,462.85,286.6,446.01,295.35,429.41 M91.24,1176.5699c0.48,25.05,2.74,50.1001,6.63,74.8601
		c0.86,6.4199,6.16,11.1599,12.1,13.0699c10.68,3.62,22.13,3.8101,33.28,4.4301c-1.19-2.4801-2.06-5.25-4.24-7.0601
		c-8.18-7.34-14.34-16.58-19.97-25.9301C107.94,1217.0699,99.46,1196.8199,91.24,1176.5699z"/>
	<path fill="#74A259" stroke="#74A259" stroke-width="0.0938" d="M646.99,472.68c1.21,2.34,2.38,4.71,3.29,7.19
		c7.89,20.53,12.5099,42.37,13.87,64.32c-3.26-11.66-5.1-23.65-7.9301-35.42C653.71,496.6,649.88,484.76,646.99,472.68z"/>
	<path fill="#454933" stroke="#454933" stroke-width="0.0938" d="M540.04,492.98c3.53-4.18,6.85-8.65,11.22-12.03
		c-4.46,5.96-9.42,11.55-13.56,17.76c-10.91,15.74-19.78,33.01-25.27,51.39c-0.29-1.92-1.05-3.69-2.57-4.95
		C516.82,526.2,527.37,508.66,540.04,492.98z"/>
	<path fill="#444A39" stroke="#444A39" stroke-width="0.0938" d="M998.11,538.17c6.46,2.12,12.67,4.96,18.96,7.56
		c23.35,9.52,46.68,19.14,70.04,28.66c-1.21,0.87-2.4,1.77-3.58,2.66C1054.88,564.48,1026.73,550.8,998.11,538.17z"/>
	<path fill="#C3B6A3" stroke="#C3B6A3" stroke-width="0.0938" d="M1292.96,570.74c49.37,27.62,98.4601,55.74,147.64,83.71
		C1509.54,693.78,1578.42,733.2,1647.17,772.86c67.9399,39.25,135.9399,78.4,203.36,118.55c15,8.9901,30.12,17.81,44.71,27.46
		c-44.4299,11.72-89.39,21.3-134.14,31.68c-134.39,30.69-268.76,61.92-401.1699,100.43c-42.39,12.41-84.5601,25.6901-125.9601,41.12
		c-18.88,6.8301-36.96,15.6-55.3099,23.7101c-3.01-2.4701-5.49-5.52-8.6801-7.76c-1.96-1.4401-4.23-2.63-5.36-4.87
		c-3.67-5.75-8.99-10.2101-13.5699-15.2101c-27.37-28-56.27-54.4099-85.27-80.6899c-36.76-33.28-73.84-66.21-110.92-99.14
		c-4.54-3.74-8.55-8.15-13.42-11.47l-1.07-0.21c-1.97-1.2-2.94-3.32-3.98-5.26c-0.53,1.35-1.04,2.71-1.5,4.1
		c0.17-1.46,0.35-2.92,0.53-4.36c-28.86-25.92-58.13-51.38-86.61-77.72c-20.49-19.61-40.67-39.54-60.34-59.97
		c6.69-9.43,14.21-18.34,23.03-25.86c1.22,1.65,2.4,3.35,3.61,5.03c-0.48,0.01-1.43,0.03-1.9,0.04
		c16.88,10.92,33.64,22.09,50.96,32.33c34.17,20.17,69.17,39.22,106.14,53.81c10.64,4.19,21.51,7.85,32.7,10.27
		c8.89,1.81,18.19,3.34,27.2,1.34c42.51-12.51,85.75-22.65,127.6901-37.08c13.6799-4.85,27.48-9.76,39.97-17.26
		c4.75-3.03,9.71-6.73,11.59-12.28c1.4701-4.19,0.2101-9.06-2.9199-12.15c-2.91-3.1-6.9401-4.63-10.74-6.28
		c18.46,1.61,37.6599,3.48,55.5299-2.74c9.12-3.17,18.15-8.58,22.8-17.36c4.0699-7.26,4.0699-16.18,1.48-23.94
		c-1.91-6.35-5.72-11.82-9.03-17.47c-0.11-3.52-2.45-6.23-4.48-8.87C1274.75,640.85,1284.12,605.82,1292.96,570.74z"/>
	<path fill="#4C453A" stroke="#4C453A" stroke-width="0.0938" d="M833.26,572.18c5.4,3.93,11.17,7.29,16.99,10.57
		c21.4,11.96,43.33,22.96,65.38,33.68c37.52,18.46,75.28,36.42,113.1801,54.09c49.24,22.89,98.46,45.84,148.36,67.26
		c2.13,0.92,4.3999,1.89,6.7899,1.3199c14.7101-2.19,29.49-3.91,44.16-6.34c9.34-1.61,18.78-3.35,27.52-7.15
		c6.48-2.82,12.02-8.41,13.37-15.53c2.1-8.9-0.88-17.74-2.4301-26.43c3.3101,5.65,7.12,11.12,9.03,17.47
		c2.59,7.76,2.59,16.68-1.48,23.94c-4.65,8.78-13.6801,14.19-22.8,17.36c-17.87,6.22-37.0699,4.35-55.5299,2.74
		c3.7999,1.65,7.83,3.1801,10.74,6.28c3.13,3.09,4.39,7.96,2.9199,12.15c-1.88,5.55-6.84,9.25-11.59,12.28
		c-12.49,7.5-26.29,12.41-39.97,17.26c-41.9401,14.43-85.1801,24.57-127.6901,37.08c-9.0099,2-18.3099,0.47-27.2-1.34
		c-11.19-2.42-22.06-6.08-32.7-10.27c-36.97-14.59-71.97-33.64-106.14-53.81c-17.32-10.24-34.08-21.41-50.96-32.33
		c0.47-0.01,1.42-0.03,1.9-0.04c7.66,5.74,16.33,10,24.54,14.91c39.93,22.46,81.1,42.9,123.96,59.19
		c17.56,6.31,35.59,12.47,54.37,13.53c7.71,0.66,14.8-2.77,21.99-4.95c43.47-13.85,87.8301-25.14,130.3101-41.93
		c8.3099-3.67,17.25-6.77,24.0699-12.96c-37.63-14.77-74.02-32.48-110.35-50.14c-37.2-18.22-74.07-37.11-110.64-56.55
		c-43.51-23.26-87.06-46.56-128.83-72.85C840.61,578.06,836.72,575.38,833.26,572.18z"/>
	<path fill="#BAC7CF" stroke="#BAC7CF" stroke-width="0.0938" d="M793.38,574.41c12.53-1.95,25.23-0.08,37.49,2.6801
		c4.57,1.12,8.84,3.5699,13.66,3.58c41.77,26.29,85.3199,49.59,128.83,72.85c36.57,19.44,73.4401,38.33,110.64,56.55
		c36.33,17.66,72.72,35.37,110.35,50.14c-6.8199,6.19-15.76,9.29-24.0699,12.96c-42.48,16.79-86.8401,28.08-130.3101,41.93
		c-7.1899,2.1801-14.28,5.61-21.99,4.95c-18.78-1.06-36.81-7.22-54.37-13.53c-42.86-16.29-84.03-36.73-123.96-59.19
		c-8.21-4.91-16.88-9.17-24.54-14.91c-1.21-1.68-2.39-3.38-3.61-5.03c9.47-8.12,20.41-14.53,32.02-19.07
		c3.88,0.62,7.67-0.58,11.44-1.31c20.53-4.04,41.99-5.1,61.37-13.61c7.51-3.22,14.81-8.44,17.63-16.44
		c1.98-7.82-1.85-15.61-5.78-22.17c-7.31-11.87-20.41-18.47-33.22-22.73c-10.85-3.62-22.29-4.56-33.48-6.42
		c0.9-0.75,1.79-1.51,2.69-2.27c-12.16,1.01-24.09-2.22-36.21-2.28c-9.12-0.09-18.22,2.6299-25.72,7.85
		c-3.69-6.74-0.44-15.63-5.86-21.73c1.5-0.4,3.04-0.73,4.57-1.08c-2.79-0.84-6.03-1.79-8.41,0.5c-0.87-4.04-4.94-5.73-8.56-6.52
		c-6.14-1.32-12.55-2.88-18.81-1.38c-4.21-1.46-8.61-2.29-13.01-2.91c-0.55-0.26-1.65-0.77-2.2-1.03
		c5.42-4.66,11.46-8.66,17.8-11.96C776.15,579.64,784.5,576.05,793.38,574.41z"/>
	<path fill="#FFDCC9" stroke="#FFDCC9" stroke-width="0.0938" d="M765.17,598.73c6.26-1.5,12.67,0.06,18.81,1.38
		c3.62,0.79,7.69,2.48,8.56,6.52c-11.15,7.56-22.1,15.55-31.65,25.11c-7.25-0.85-14.73-1.48-21.85,0.56
		c-8.3,2.35-14.75,8.42-21.03,14.01c6.95,1.48,14.27,2.81,21.29,0.91c5.07-1.12,9.48-3.98,13.59-7.03
		c-10.28,11.81-18.41,25.41-24.3,39.9c-12.06-19.52-28.33-36.16-39.39-56.33c17-4.09,33.7-9.26,50.45-14.26
		c12.46-3.73,25.71-6.4,38.66-3.61C774.27,602.93,769.86,600.5,765.17,598.73z"/>
	<path fill="#FFDCC9" stroke="#FFDCC9" stroke-width="0.0938" d="M764.61,648.69c12.1-12.61,21.87-27.15,31.77-41.48
		c5.42,6.1,2.17,14.99,5.86,21.73c-4.7,3.15-8.8,7.12-12.34,11.52c4.97-1.25,9.93-2.6,15.0099-3.31
		c12.66-2.03,25.66-0.73,38.21-3.64c6.55-1.43,12.75-4.21,18.36-7.87c11.19,1.86,22.63,2.8,33.48,6.42
		c12.81,4.26,25.91,10.86,33.22,22.73c3.93,6.56,7.76,14.35,5.78,22.17c-2.82,8-10.12,13.22-17.63,16.44
		c-19.38,8.5099-40.84,9.5699-61.37,13.61c-3.77,0.73-7.56,1.93-11.44,1.31c14.22-5.51,29.33-8.44,44.5-9.74
		c2.67-0.21,5.33-0.62,7.98-1.12c-14.36,0.11-28.83,0.16-42.94,3.17c-20.19,3.93-39.45,12.92-54.95,26.5
		c-20.91,18.1-34.92,42.52-46.87,67.09c-15.51,31.8701-27.87,65.89-50.32,93.8c-14.7,18.53-34.56,33.08-56.93,40.88
		c-7.11,2.52-14.03-2.23-18.83-7.07c-10.05-10.53-17.0099-23.5-23.49-36.41c-3.13-6.94-7.54-13.47-9-21.05
		c-1.04-6.22-2.78-12.3-4.46-18.36c5.59,2.89,12.2599,3.69,18.28,1.64c22.96-7.82,44.39-19.81,63.66-34.4901
		c23.72-18.08,44.47-39.8799,62.19-63.8199c5.77-7.29,10.2-15.94,10.75-25.3701c1.31-14.99-5.48-29.0099-12.95-41.53
		C741.21,670.77,753.85,660.67,764.61,648.69 M826.99,651.88c12-1.23,24.05-1.71,36.11-2.08c14.9-0.18,29.81-2.2,44.14-6.35
		c-14.87-4.78-30.39-9.8-46.22-7.74C848.23,637.26,837.03,644.24,826.99,651.88 M881.99,658.85c-13.37,2.65-26.01,8.42-37.32,15.95
		c11.12-0.14,22.26-0.08,33.35-0.99c14.64-1.11,28.92-5.43,41.99-12.04c2.38-1.28,5.01-2.21,7.01-4.1
		C912.02,657.24,896.85,656.22,881.99,658.85z"/>
	<path fill="#757B8B" stroke="#757B8B" stroke-width="0.0938" d="M38.26,621.23c0.8-2.38,2.79-5.59,5.76-4.42
		c4.76,1.96,7.86,6.34,11.02,10.2c8.05,10.58,14.73,22.11,21.26,33.67c3.51,6.49,7.39,12.82,10.23,19.65
		c-3.4-2.73-5.04-6.86-7.52-10.32c-8.44-12.51-16.5-25.35-26.05-37.05c2.25,4.88,5.85,8.95,8.58,13.54
		c29.91,45.57,53.8,95.02,71.41,146.58c24.72,72.6,37.18,148.77,44.04,224.96c4.75,48.42,6.88,97.2501,3.39,145.83
		c-1.65,19.9-4.33,39.78-9.24,59.17c-2.46,9.9299-4.99,20.08-10.2,28.99c-1.24,1.7999-2.94,4.58-5.55,3.53
		c-6.17-2.7001-10.67-8.05-14.86-13.15c-9.27-12.27-16.54-25.91-23.11-39.77c-8.81-19.14-17.14-38.54-23.69-58.59
		c-1.4-4.26-3.24-8.5-3.16-13.0601c0.29-37.36,2.45-74.6799,2.09-112.04c-0.02-9.34,0.38-18.68-0.1-28.01
		c-1.2,41.41-4.98,82.7-7.25,124.06c-5.71-18.96-9.13-38.53-12.73-57.98c-7.29-42.44-11.11-85.37-14.29-128.28
		c-3.13-39.19-4.59-78.49-6.8-117.73c-0.99-25.71-4.26-51.27-5.47-76.97c-0.35-10.99-2.13-22.09-6.54-32.22
		c-1.79-5.42-0.91-11.17-1.35-16.74c-1.15-14.69-2.34-29.41-2.29-44.16C36.12,634.33,36.14,627.55,38.26,621.23z"/>
	<path fill="#4C453B" stroke="#4C453B" stroke-width="0.0938" d="M802.24,628.94c7.5-5.22,16.6-7.94,25.72-7.85
		c12.12,0.06,24.05,3.29,36.21,2.28c-0.9,0.76-1.79,1.52-2.69,2.27c-5.61,3.66-11.81,6.44-18.36,7.87
		c-12.55,2.91-25.55,1.61-38.21,3.64c-5.08,0.71-10.04,2.06-15.0099,3.31C793.44,636.06,797.54,632.09,802.24,628.94z"/>
	<path fill="#4C453A" stroke="#4C453A" stroke-width="0.0938" d="M826.99,651.88c10.04-7.64,21.24-14.62,34.03-16.17
		c15.83-2.06,31.35,2.96,46.22,7.74c-14.33,4.15-29.24,6.17-44.14,6.35C851.04,650.17,838.99,650.65,826.99,651.88z"/>
	<path fill="#4C453A" stroke="#4C453A" stroke-width="0.0938" d="M881.99,658.85c14.86-2.63,30.03-1.61,45.03-1.18
		c-2,1.89-4.63,2.82-7.01,4.1c-13.07,6.61-27.35,10.93-41.99,12.04c-11.09,0.91-22.23,0.85-33.35,0.99
		C855.98,667.27,868.62,661.5,881.99,658.85z"/>
	<path fill="#9FB3CA" stroke="#9FB3CA" stroke-width="0.0938" d="M1081.73,658.77c2.41-0.77,5.0601-2.37,7.59-1.04
		c41.1001,18.82,82.42,37.48,121.4,60.49c4.7101,2.4901,8.9301,6.28,14.3101,7.21c7.02,0.75,12.8099-4.41,16.76-9.63
		c9.14-12.34,14.74-26.82,20.3099-41.02c2.03,2.64,4.37,5.35,4.48,8.87c1.55,8.69,4.53,17.53,2.4301,26.43
		c-1.35,7.12-6.89,12.71-13.37,15.53c-8.74,3.8-18.1801,5.54-27.52,7.15c-14.67,2.43-29.45,4.15-44.16,6.34
		c-2.39,0.57-4.6599-0.4-6.7899-1.3199c-49.9-21.42-99.12-44.3701-148.36-67.26c0.9399-0.65,1.9399-1.25,2.8999-1.89
		c4.3501,1.34,8.9301,0.08,13.36-0.19C1057.6899,667.09,1069.95,663.42,1081.73,658.77z"/>
	<path fill="#4C453B" stroke="#4C453B" stroke-width="0.0938" d="M853.06,700.63c14.11-3.01,28.58-3.06,42.94-3.17
		c-2.65,0.5-5.31,0.91-7.98,1.12c-15.17,1.3-30.28,4.23-44.5,9.74c-11.61,4.54-22.55,10.95-32.02,19.07
		c-8.82,7.52-16.34,16.43-23.03,25.86c19.67,20.43,39.85,40.36,60.34,59.97c28.48,26.34,57.75,51.8,86.61,77.72
		c-0.18,1.44-0.36,2.9-0.53,4.36c-1.44,10.51-2.14,21.11-3.1,31.68c-0.52,6.97-1.45,13.92-1.38,20.93
		c1.07-15.43,3.58-30.71,5.26-46.08c-0.21,12.4-1.59,24.75-2.18,37.14c-5.13,83.05-9.4,166.16-15.01,249.1901
		c35.87,31.9199,72.06,63.5,107.99,95.36c40.79,40.15,81.61,80.27,122.3,120.52c-28.76-24.8101-57.02-50.2001-85.6-75.2201
		c-14.8301-13.1599-29.79-26.1599-44.5701-39.38c-27.99-27.6899-56.13-55.24-84.13-82.9199
		c-5.39-5.2001-10.5699-10.62-16.08-15.6801c-8.18,123.3101-18.69,246.49-33.41,369.2101c0.84-0.88,1.7-1.7301,2.57-2.5601
		c-0.74,3.65-3.33,6.67-3.58,10.46c-2.71,22.1001-5.6299,44.1801-8.8199,66.2201c-3.29,22.3999-6.69,44.8099-11.46,66.96
		c-1.24,5.6899-2.66,11.34-4.47,16.89c6.32-28.86,8.53-58.41,11.51-87.74c1.92-19.3301,3.29-38.7101,4.85-58.0601
		c-28.11,15.5-60.85,20.28-92.59,19.3301c-9.38-0.04-18.67-1.4301-28.02-1.8c-3.97-0.2-8.5099,0.26-11.56-2.8199
		c13.08-0.3401,25.78-3.8301,38.6801-5.67c22.18-4.29,44.61-7.02,67-9.89c9.14-1.66,18.6-2.41,27.22-6.12
		c-0.14-5.12,0.61-10.17,1.13-15.23c0.28-11.73,1.98-23.36,2.31-35.0801c2.41-28.98,4.18-58,6.53-86.98
		c0.46-6.22,0.0099-12.48,0.9-18.6599c1.4-8.4601,1.35-17.0701,2.37-25.5701c4.66-63.3099,9.92-126.5599,15.49-189.7999
		c1.16-5.9601,0.12-12.1001,1.42-18.03c1.32-6.2101,1.24-12.6,1.94-18.88c1.83-17.54,3.0699-35.12,5.14-52.63
		c0.82-8.48,1.06-17,2.57-25.39c0.13-4.9399,1.82-10.49-1.1-14.91c-4.59-7.9299-9.56-15.63-14.5-23.34
		c-10.92-17.81-22.49-35.28-35.94-51.3c-12.69-15.17-27.77-28.63-45.41-37.77c-17.58-8.73-36.79-13.64-56.08-16.84
		c-18.58-3.14-37.33-5.1801-56.09-6.9301c-10.63-0.65-21.33-2.64-31.97-1.34c-9.31,4.58-18.83,9-28.95,11.51
		c-4.65,0.84-9.61,0.6-13.92-1.45c-6.32-2.85-11.1-8.12-15.37-13.42c-5.64-8.17-9.67-17.27-13.76-26.27
		c-4.78-10.43-8.59-21.27-12.65-31.98c0.58-0.15,1.73-0.44,2.3-0.59c1.46,7.58,5.87,14.11,9,21.05
		c6.48,12.91,13.44,25.88,23.49,36.41c4.8,4.84,11.72,9.59,18.83,7.07c22.37-7.8,42.23-22.35,56.93-40.88
		c22.45-27.91,34.81-61.93,50.32-93.8c11.95-24.5699,25.96-48.99,46.87-67.09C813.61,713.55,832.87,704.56,853.06,700.63
		 M681.69,923.29c6.13,0.63,12.28-0.72,18.34-1.52c-4.7-0.74-9.29-2.37-14.1-2.18C684,920.09,682.79,921.76,681.69,923.29z"/>
	<path fill="#757B8B" stroke="#757B8B" stroke-width="0.0938" d="M48.23,873.79c0.74,7.04,0.08,14.12,0.47,21.18
		c2.38,62.2,5.21,124.66,16.23,186.05c4.2,23.91,9.91,47.58,17.49,70.65c1.54,4.62,0.77,9.5299,0.78,14.2999
		c-0.37,25.65,0.28,51.3401,3.02,76.85c0.55,7.12,1.03,14.64,5.07,20.8c5.7,9.12,16.64,13.02,26.76,14.76
		c12.96,2.6801,26.4,1.97,39.24,5.23c3.57,1.15,8.12,2.61,9.19,6.6901c3.85,16.2699,5.13,33.97-1.27,49.7899
		C159.4,1355.9,145.2,1367.78,129.1,1372.16c-20.22,5.61-42.16,2.3199-61.12-6.14c-12.09-5.75-24.46-12.41-32.54-23.4501
		c-11.14-14.97-17.65-33.0099-20.88-51.2699c-2.55-15.9801-1.51-32.2001-1.72-48.3c0.61-73.42,3.65-146.86,10.92-219.93
		c0.87-9.42,1.14-18.94,2.94-28.24c0.14,0.57,0.41,1.72,0.55,2.29c3.63-27.55,8.96-54.86,14.25-82.12l-0.4-0.34
		c-0.3,0.21-0.9,0.64-1.19,0.85c-1.62,8.18-3.61,16.34-4.42,24.65c-1.01,0.01-2.03,0.04-3.05,0.08c1.93-2.86,2.15-6.36,2.99-9.6
		c1.41-6.96,3.91-13.64,5.16-20.62c0,1.08,0.14,2.16,0.43,3.23c0.26-0.13,0.8-0.41,1.06-0.54
		C44.36,899.77,49.14,887.11,48.23,873.79z"/>
	<path fill="#D1C6B4" stroke="#D1C6B4" stroke-width="0.0938" d="M936.39,891.2c1.04,1.94,2.01,4.06,3.98,5.26
		c24.31,24.06,49.3,47.45,74.49,70.6c49.55,45.78,99.76,90.84,149.76,136.1201c1.13,2.24,3.4,3.4299,5.36,4.87
		c3.1901,2.24,5.67,5.2899,8.6801,7.76c0.33,0.24,0.99,0.71,1.3199,0.9399c-0.46,10.76-0.3199,21.55-1.0699,32.3
		c-0.39,5.4399,0.0399,10.9399-1.01,16.33c-0.23-6.8101-0.41-13.61-0.35-20.42c-1.28,10.3101-1.03,20.7201-1.6801,31.0701
		c-4.53,103.21-14.22,206.09-24.54,308.86c-6.35,63.36-12.83,126.71-19.01,190.09c-26.48-27.6-52.97-55.21-80.22-82.04
		c-41.2-40.8899-83.88-80.2699-127.55-118.5c-8.92-7.6-17.49-15.6699-26.84-22.73c4.62,5.5601,10.2,10.24,15.1,15.55
		c27.97,28.6899,55.95,57.38,84.39,85.61c43.31,42.75,88.06,84,133.34,124.64c1.84,1.23,1.14,3.5599,1.08,5.42
		c-6.21,62.5299-11.49,125.1599-16.9301,187.7599c-0.97,5.41,0.0901,10.9401-0.9299,16.3601c-0.74,7.11-2.13,14.1699-2.34,21.33
		c0.62-0.05,1.85-0.14,2.46-0.1901c-3.0601,2.9-1.58,7.9801-2.52,11.8101h-0.9399c-11.14-9.4301-23.15-17.79-34.6001-26.85
		c-70.52-53.76-140.9-107.72-211.45-161.4601c-2.74-2.24-5.9-4.0099-8.22-6.7c-0.08-6.15,1.79-12.11,2.22-18.21
		c-0.62-0.0701-1.84-0.2001-2.45-0.27c0.93-0.25,1.87-0.49,2.83-0.72c0.74-4.9601,1.39-9.92,2.19-14.86
		c3.18-21.2401,5.81-42.5701,8.55-63.88c0.42,1.0499,0.83,2.12,1.24,3.23c-2.98,29.33-5.19,58.88-11.51,87.74
		c1.8101-5.55,3.23-11.2001,4.47-16.89c4.77-22.15,8.17-44.5601,11.46-66.96c3.19-22.04,6.11-44.12,8.8199-66.2201
		c0.25-3.7899,2.84-6.8099,3.58-10.46c-0.87,0.83-1.73,1.6801-2.57,2.5601c14.72-122.7201,25.23-245.9,33.41-369.2101
		c5.51,5.0601,10.69,10.48,16.08,15.6801c28,27.6799,56.14,55.23,84.13,82.9199c14.78,13.2201,29.74,26.2201,44.5701,39.38
		c28.58,25.02,56.84,50.41,85.6,75.2201c-40.6901-40.25-81.51-80.37-122.3-120.52c-35.93-31.86-72.12-63.4401-107.99-95.36
		c5.61-83.03,9.88-166.14,15.01-249.1901c0.59-12.39,1.97-24.74,2.18-37.14c-1.68,15.37-4.19,30.65-5.26,46.08
		c-0.0699-7.0099,0.86-13.96,1.38-20.93c0.96-10.57,1.66-21.17,3.1-31.68C935.35,893.91,935.86,892.55,936.39,891.2z"/>
	<path fill="#4C4538" stroke="#4C4538" stroke-width="0.0938" d="M941.44,896.67c4.87,3.32,8.88,7.73,13.42,11.47
		c37.08,32.93,74.16,65.86,110.92,99.14c29,26.28,57.9,52.6899,85.27,80.6899c4.58,5,9.8999,9.4601,13.5699,15.2101
		c-50-45.28-100.21-90.34-149.76-136.1201c-25.19-23.15-50.18-46.54-74.49-70.6L941.44,896.67z"/>
	<path fill="#147DCA" stroke="#147DCA" stroke-width="0.0938" d="M681.69,923.29c1.1-1.53,2.31-3.2,4.24-3.7
		c4.81-0.19,9.4,1.44,14.1,2.18C693.97,922.57,687.82,923.92,681.69,923.29z"/>
	<path fill="#0084E6" stroke="#0084E6" stroke-width="0.0938" d="M605.03,956.34c4.97-10.63,9.02-21.7,11.75-33.13
		c4.27,5.3,9.05,10.57,15.37,13.42c4.31,2.05,9.27,2.29,13.92,1.45c10.12-2.51,19.64-6.93,28.95-11.51
		c10.64-1.3,21.34,0.69,31.97,1.34c18.76,1.75,37.51,3.79,56.09,6.9301c19.29,3.2,38.5,8.11,56.08,16.84
		c17.64,9.14,32.72,22.6,45.41,37.77c13.45,16.02,25.02,33.49,35.94,51.3c4.94,7.71,9.91,15.41,14.5,23.34
		c2.92,4.42,1.23,9.9701,1.1,14.91c-1.51,8.39-1.75,16.91-2.57,25.39c-2.07,17.51-3.31,35.09-5.14,52.63
		c-0.7,6.28-0.62,12.6699-1.94,18.88c-1.3,5.9299-0.26,12.0699-1.42,18.03c-5.57,63.24-10.83,126.49-15.49,189.7999
		c-1.02,8.5-0.97,17.11-2.37,25.5701c-0.89,6.1799-0.44,12.4399-0.9,18.6599c-2.35,28.98-4.1201,58-6.53,86.98
		c-0.33,11.7201-2.03,23.3501-2.31,35.0801c-0.52,5.0599-1.27,10.11-1.13,15.23c-8.62,3.71-18.08,4.46-27.22,6.12
		c-22.39,2.87-44.82,5.6-67,9.89c-12.9,1.84-25.6,5.33-38.6801,5.67c-0.28-0.7101-0.52-1.41-0.72-2.1001
		c-0.22-1.51-0.37-3-0.56-4.45l-0.04-0.3c-0.13-2.6499-0.3-5.2699-0.4901-7.88c-1.45-12.1799,1.51-24.1499,3.44-36.08
		c2.15-10.8099,4.2-21.64,6.2-32.48c3.15-23.24,6.83-46.39,9.76-69.66c0.95-5.66,1.49-11.37,1.76-17.1
		c0.36,2.33,0.63,4.6801,0.87,7.05c-0.84-10.8,1.28-21.4901,1.99-32.2301c1.45-15.86,1.1-31.8199,1.27-47.73
		c-0.2-11.9399,0.18-23.9-0.88-35.7999c-0.98-14.6901-3.41-29.25-6.45-43.65c0.55-3.15-0.24-6.1901-2-8.8
		c-3.32-10.34-5.98-20.95-10.39-30.9099c-0.51-1.13-1.42-1.6001-2.7-1.41l-0.29-0.73c-4-5.0801-9.18-9.4701-15.29-11.75
		c1.45-1.01,2.83-2.3501,4.72-2.37c11.76-1.24,23.5-3.0601,35.36-3.15c9.3-1.29,18.69-0.76,28.04-0.9
		c2.33-0.04,4.68,0.0601,6.99,0.48c5.33,0.97,10.77,0.4401,16.16,0.48c-4.28-1.26-8.77-0.76-13.12-1.4299
		c-11.83-2.64-24.03-2.5-36.08-2.5801c-46.62-0.7699-92.66,8.3501-137.91,18.6901c-65.43,15.0699-130.25,34.9-197.48,40.24
		c-6.58-0.08-13.05,1.37-19.63,1.1801c-15.32,0.2699-30.65-0.25-45.94,0.7599c-13.02-0.22-26.07,0.51-39.06-0.59
		c-6.2-0.33-12.46,0.14-18.61-0.97c-22.67-2.26-46.21-6.11-65.7-18.7c-6.17-3.8601-11.16-9.2401-16-14.6001
		c-6.64-8.11-11-17.87-14.02-27.84c-2.74-9.74-4.86-19.73-5.33-29.86c-1.01-6.55-0.84-13.1801-1.13-19.77
		c-1.37-16.98,0.59-33.98,0.06-50.97c-0.71-4.91-0.61-9.86,0.05-14.75c0.18-1.6901,0.26-3.38,0.25-5.05
		c3.01,0.9401,5.83,2.3201,8.67,3.6801c13.84,5.77,28.31,9.9,42.87,13.4399c22.87,5.9,46.37,9.3201,68.81,16.8201
		c10.25,4.15,20.82,7.6699,31.77,9.4299c12.28,2.5601,24.89,2.0801,37.35,1.8c15.54-1.3,31.09-4.12,45.7-9.6801
		c19-6.64,37-16.0699,53.68-27.3199c32.8-22.27,60.68-51.6901,81.52-85.4c1.83-2.75,3.7-5.61,3.92-9c0.69-0.79,1.55-1.4,2.38-2.02
		c0.54-1.3,1.07-2.58,1.64-3.84C594.15,976.85,599.05,966.29,605.03,956.34 M745.04,1005.47c-3.37,0.09-6.74,0.14-10.07,0.66
		c-5.64,0.82-11.53-0.21-16.93,1.91c-18.73,1.91-37.33,5.06-56.09,6.78c-4.39,1.34-9.14,0.07-13.45,1.63
		c-0.62-0.17-1.85-0.51-2.47-0.68c-12.6,1.07-25.29,1.05-37.9301,0.68c-5.67-0.72-11.37-1.01-17.08-0.98
		c0.21,3.04,3.82,2.58,5.93,3.16c7.92,1.98,16,3.38,24.15,4.05c3.52,0.31,7.04,1.53,10.59,0.81c12.75,0.96,25.54,1.05,38.33,0.73
		c7.05-0.92,14.18-0.37,21.26-0.93c5.52-1.2599,11.22-0.49,16.79-1.35c4.27-0.65,8.66,0,12.89-0.96c4.28-0.83,8.68-0.31,13-0.78
		c7.66-0.98,15.4-0.49,23.08-0.96c6.91-1.21,13.95-0.45,20.93-0.68c3.73-0.28,7.34,0.93,11.0601,0.91
		c15.04,0.01,30.25,2.41,44.05,8.61c16.28,7.5701,29.45,20.3201,40.94,33.87c11.7,13.5801,22.56,28.02,36.05,39.9301
		c-8.15-10.61-15.53-21.79-22.98-32.91c-10.82-16.45-22.3-33.11-38.41-44.84c-15.4-11.65-34.6-17.3-53.7-18.56
		c-3.94,0-7.76-1.25-11.7-1.08C770.54,1004.55,757.7,1003.71,745.04,1005.47z"/>
	<path fill="#978C7A" stroke="#978C7A" stroke-width="0.0938" d="M1390,1050.8199c172.35-47.0699,347.76-81.5599,521.4-123.35
		c0.11,0.4901,0.34,1.48,0.45,1.97c-2.78,36.85-5.2,73.74-7.89,110.6c-0.38,9.12-2.1,18.23-1.21,27.36
		c-0.11,1.23-0.23,2.48-0.34,3.74c-0.2001-0.84-0.5901-2.51-0.79-3.35c-1.05,2.86-0.7,5.86,0.23,8.71
		c-8.1799,80.09-15.9199,160.24-21.88,240.53c-5.58,76.5-9.03,153.1899-8.87,229.9099c-0.11,29.7301,0.84,59.4801,3.9,89.0701
		c5.48,56.59,16.39,112.47,23.5699,168.84c1.5701,14.04,2.62,28.12,3.6001,42.2101c0.47,5.9299,0.14,11.9399,1.4099,17.7999
		c-0.22-4.41-0.3099-8.83,0.2101-13.22c1.1899,4.59,1.7899,9.3199,2.14,14.0599c-224.51,11.3601-449.02,22.79-673.4801,35.0901
		c-39.5299,2.3199-79.08,4.38-118.5699,7.3999c-0.61,0.05-1.84,0.14-2.46,0.1901c0.21-7.16,1.6-14.22,2.34-21.33
		c1.02-5.42-0.04-10.9501,0.9299-16.3601c0.14,0.29,0.42,0.88,0.5601,1.17c9.03-61.1899,17.96-122.4,26.58-183.65
		c3.77,2.1901,6.4701,5.75,10.16,8.0801c-2.74-3.9601-6.61-6.9301-9.51-10.7101c-0.0599-6.5599,1.7001-13.01,2.3201-19.5299
		c13.59-100.63,24.59-201.6801,29.76-303.13c3.35-61.5701,4.4299-123.26,3.5599-184.92c-0.2-4.21-0.54-8.42-0.22-12.62
		c1.0499-5.39,0.62-10.89,1.01-16.33c0.75-10.75,0.61-21.54,1.0699-32.3C1248.96,1091.66,1319.21,1070.1899,1390,1050.8199z"/>
	<path fill="#4C453B" stroke="#4C453B" stroke-width="0.0938" d="M1908.67,1000.96c2.11-23.03,3.8999-46.09,5.98-69.13
		c-1.39,50.07-3.86,100.1099-6.42,150.1299c-8.5699,157.67-21.5699,315.16-24.52,473.0901c-0.6499,27.36-0.2899,54.75,1.61,82.0499
		c3.9301,60.79,13.6101,121.0601,17.04,181.89c0.65,10.87,0.55,21.78,1.4301,32.65c-0.52,4.39-0.4301,8.8099-0.2101,13.22
		c-1.2699-5.86-0.9399-11.87-1.4099-17.7999c-0.9801-14.0901-2.03-28.17-3.6001-42.2101c-7.1799-56.37-18.09-112.25-23.5699-168.84
		c-3.0601-29.59-4.01-59.34-3.9-89.0701c-0.16-76.72,3.29-153.4099,8.87-229.9099c5.9601-80.29,13.7001-160.4401,21.88-240.53
		c0.14-1.8101,0.38-3.58,0.5601-5.36c0.11-1.26,0.23-2.51,0.34-3.74C1904.35,1045.22,1906.91,1023.13,1908.67,1000.96z"/>
	<path fill="#4B453B" stroke="#4B453B" stroke-width="0.0938" d="M745.04,1005.47c12.66-1.7599,25.5-0.92,38.2401-0.98
		c3.9399-0.17,7.7599,1.08,11.7,1.08c19.1,1.26,38.3,6.91,53.7,18.56c16.11,11.73,27.59,28.39,38.41,44.84
		c7.45,11.12,14.83,22.3,22.98,32.91c-13.49-11.91-24.35-26.35-36.05-39.9301c-11.49-13.5499-24.66-26.2999-40.94-33.87
		c-13.8-6.2-29.01-8.6-44.05-8.61c-3.72,0.02-7.33-1.1899-11.0601-0.91c-6.98,0.23-14.02-0.53-20.93,0.68
		c-7.68,0.47-15.42-0.02-23.08,0.96c-4.32,0.47-8.72-0.05-13,0.78c-4.23,0.96-8.62,0.31-12.89,0.96
		c-5.57,0.86-11.27,0.09-16.79,1.35c-7.08,0.56-14.21,0.01-21.26,0.93c-12.79,0.3201-25.58,0.23-38.33-0.73
		c1.05-0.35,2.1-0.69,3.16-1.03c-4.98-0.17-9.9-1-14.88-1.05c-3.58-0.4-7.64-0.28-10.58-2.67c12.99-1.19,26.42,1.43,39.11-2.29
		c4.31-1.56,9.06-0.29,13.45-1.63c18.76-1.72,37.36-4.87,56.09-6.78c5.4-2.12,11.29-1.09,16.93-1.91
		C738.3,1005.61,741.67,1005.56,745.04,1005.47z"/>
	<path fill="#21597E" stroke="#21597E" stroke-width="0.0938" d="M591.02,1015.47c5.71-0.03,11.41,0.26,17.08,0.98
		c12.64,0.37,25.33,0.39,37.9301-0.68c0.62,0.17,1.85,0.51,2.47,0.68c-12.69,3.72-26.12,1.1-39.11,2.29c2.94,2.39,7,2.27,10.58,2.67
		c4.98,0.05,9.9,0.88,14.88,1.05c-1.06,0.34-2.11,0.68-3.16,1.03c-3.55,0.72-7.07-0.5-10.59-0.81c-8.15-0.67-16.23-2.07-24.15-4.05
		C594.84,1018.05,591.23,1018.51,591.02,1015.47z"/>
	<path fill="#D32121" stroke="#D32121" stroke-width="0.0938" d="M194.5,1068.0601c4.58,3.99,9.8,7.1,14.78,10.5399
		c-1.91,6.28-1.12,12.9601-2.88,19.26c-1.01,3.97-0.73,8.09-0.92,12.15c-0.18,4.72-1.88,9.26-1.82,14.02
		c-0.17,11.98-0.34,23.96,0.03,35.9399c0.07,2.8401,0.58,5.65,1.11,8.4501c1.54,11.88,2.04,23.96,5.5,35.51
		c4.43,18.0099,14.7,35.0399,30.1,45.7c16.99,12.53,37.91,18.27,58.44,21.74c5,1.24,10.19,0.92,15.25,1.76
		c8.24,1.36,16.62,1.36,24.91,2.3c29.32,0.3899,58.64,0.58,87.95,0.12c5.26,0.0199,10.42-1.17,15.67-1.26
		c45.58-3.8,90.02-15.38,134.01-27.41c48.19-13.15,95.98-28.41,145.42-36.24c2.26-0.53,4.6-0.3101,6.84,0.28
		c6.11,2.2799,11.29,6.6699,15.29,11.75l0.29,0.73c3.38,7.75,5.13,16.0599,6.59,24.35c1.61,10.36,3.26,20.74,3.63,31.25
		c1,6.37,0.85,12.83,0.88,19.28c-0.63,0.11-1.9,0.34-2.53,0.46c-2.74,1.1-5.66,1.61-8.58,1.92c0.04,0.1899,0.11,0.5699,0.14,0.76
		c-2.5699,0.34-5.11,0.7799-7.61,1.4399l-1.12,0.33c-4.17,0.7101-8.39-0.8999-12.52,0.13c-6.5,1.37-12.97,2.87-19.46,4.27
		c-13.43,2.53-27.13,3.1-40.55,5.74c-22.05,3.7001-43.67,9.5-65.36,14.79c-10.69,2.77-21.26,5.9301-31.94,8.75
		c-8.31,2.76-16.99,4.0601-25.39,6.54c-46.39,11.99-93.07,23.48-140.66,29.65c-36.51,4.46-73.77,4.9399-109.99-2.17
		c-21.03-3.71-41.45-10.5601-60.83-19.47c-4.62-1.9601-8.71-4.9-13.19-7.11c-4.34-2.5-9.03-4.3601-13.19-7.16
		c-6.92-5.09-13.52-10.5701-19.96-16.24c-0.36-8.37,0.16-16.8401-1.73-25.0701c-1.09-4.37-1.25-9.13-3.79-12.99
		c-3.96-6.84-11.51-10.9-19.23-11.73c2.55-1.03,5.08-2.13,7.45-3.52c6.1-3.24,9.25-9.83,12.07-15.7999
		c4.4-11.6001,7.52-23.66,10.01-35.8c0.9-5.75,2.97-11.25,3.5-17.0601c1.16-12.6799,3.41-25.2599,3.54-38.0099
		c1.1-6.9401,0.94-13.9601,1.02-20.9601c-0.09-6,0.67-11.99,0.09-17.97c-0.13-11,0.1-22-0.39-32.99
		C194.33,1082.0699,194.42,1075.05,194.5,1068.0601z"/>
	<path fill="#AFA898" stroke="#AFA898" stroke-width="0.0938" d="M1901.85,1076.5c-0.9299-2.85-1.28-5.85-0.23-8.71
		c0.2,0.84,0.59,2.51,0.79,3.35C1902.23,1072.92,1901.99,1074.6899,1901.85,1076.5z"/>
	<path fill="#72587F" stroke="#72587F" stroke-width="0.0938" d="M209.28,1078.6l1.23,0.62c0.01,1.67-0.07,3.36-0.25,5.05
		c-2.22,4.1-1.27,8.86-1.77,13.3199c-0.72,7.38-1.19,14.79-1.89,22.1801c-0.75,5.4-2.23,10.72-2.06,16.22
		c0.14,8.4301-0.01,16.87,0.72,25.28c0.03,2.38-0.21,4.76-0.46,7.15c-0.53-2.8-1.04-5.61-1.11-8.4501
		c-0.37-11.98-0.2-23.96-0.03-35.9399c-0.06-4.76,1.64-9.3,1.82-14.02c0.19-4.0601-0.09-8.1801,0.92-12.15
		C208.16,1091.5601,207.37,1084.88,209.28,1078.6z"/>
	<path fill="#334B57" stroke="#334B57" stroke-width="0.0938" d="M208.49,1097.59c0.5-4.46-0.45-9.22,1.77-13.3199
		c-0.66,4.89-0.76,9.84-0.05,14.75c0.53,16.99-1.43,33.99-0.06,50.97c0.29,6.59,0.12,13.22,1.13,19.77
		c-0.14,2.11-0.44,4.22-0.77,6.33c-1.8-6.5399-1.4-13.37-1.51-20.0699c-0.04-5.02-1.02-9.98-0.88-15c0.08-3.74-0.04-7.49-0.71-11.17
		c-0.96,7.01-0.47,14.11-0.64,21.17c-0.09,2.23,0.17,4.72-1.42,6.5699c-0.12-12.62,0.41-25.23,1.25-37.8199
		C207.3,1112.38,207.77,1104.97,208.49,1097.59z"/>
	<path fill="#147DCA" stroke="#147DCA" stroke-width="0.0938" d="M204.54,1135.99c-0.17-5.5,1.31-10.8199,2.06-16.22
		c-0.84,12.59-1.37,25.2-1.25,37.8199c-0.02,1.2001-0.07,2.4401-0.09,3.6801C204.53,1152.86,204.68,1144.42,204.54,1135.99z"/>
	<path fill="#4C453B" stroke="#4C453B" stroke-width="0.0938" d="M207.41,1129.85c0.67,3.6801,0.79,7.4301,0.71,11.17
		c-0.14,5.02,0.84,9.98,0.88,15c0.11,6.7-0.29,13.53,1.51,20.0699c0.33-2.11,0.63-4.22,0.77-6.33c0.47,10.13,2.59,20.12,5.33,29.86
		c3.02,9.97,7.38,19.73,14.02,27.84c4.84,5.36,9.83,10.74,16,14.6001c19.49,12.59,43.03,16.4399,65.7,18.7
		c6.15,1.11,12.41,0.64,18.61,0.97c12.99,1.1,26.04,0.37,39.06,0.59c15.29-1.0099,30.62-0.49,45.94-0.7599
		c6.58,0.1899,13.05-1.26,19.63-1.1801c67.23-5.34,132.05-25.17,197.48-40.24c45.25-10.34,91.29-19.46,137.91-18.6901
		c12.05,0.0801,24.25-0.0599,36.08,2.5801c4.35,0.6699,8.84,0.1699,13.12,1.4299c-5.39-0.0399-10.83,0.49-16.16-0.48
		c-2.31-0.4199-4.66-0.52-6.99-0.48c-9.35,0.14-18.74-0.39-28.04,0.9c-11.86,0.09-23.6,1.91-35.36,3.15
		c-1.89,0.0199-3.27,1.36-4.72,2.37c-2.24-0.5901-4.58-0.8101-6.84-0.28c-49.44,7.83-97.23,23.09-145.42,36.24
		c-43.99,12.03-88.43,23.61-134.01,27.41c-5.25,0.09-10.41,1.2799-15.67,1.26c-29.31,0.46-58.63,0.2699-87.95-0.12
		c-8.29-0.9401-16.67-0.9401-24.91-2.3c-5.06-0.84-10.25-0.52-15.25-1.76c-20.53-3.47-41.45-9.21-58.44-21.74
		c-15.4-10.66-25.67-27.6901-30.1-45.7c-3.46-11.55-3.96-23.63-5.5-35.51c0.25-2.39,0.49-4.77,0.46-7.15
		c0.02-1.24,0.07-2.48,0.09-3.6801c1.59-1.85,1.33-4.34,1.42-6.5699C206.94,1143.96,206.45,1136.86,207.41,1129.85z"/>
	<path fill="#4C453A" stroke="#4C453A" stroke-width="0.0938" d="M1177.55,1144.96c-0.0601,6.8101,0.12,13.61,0.35,20.42
		c-0.3201,4.2,0.02,8.41,0.22,12.62c0.87,61.66-0.21,123.35-3.5599,184.92c-5.17,101.45-16.17,202.5-29.76,303.13
		c-0.62,6.5199-2.38,12.97-2.3201,19.5299c2.9,3.78,6.77,6.75,9.51,10.7101c-3.6899-2.3301-6.39-5.89-10.16-8.0801
		c-8.62,61.25-17.5499,122.4601-26.58,183.65c-0.14-0.29-0.42-0.88-0.5601-1.17c5.4401-62.6,10.7201-125.23,16.9301-187.7599
		c0.0601-1.8601,0.76-4.1901-1.08-5.42c-45.28-40.64-90.03-81.89-133.34-124.64c-28.44-28.23-56.42-56.92-84.39-85.61
		c-4.9-5.3101-10.48-9.99-15.1-15.55c9.35,7.0601,17.92,15.13,26.84,22.73c43.67,38.2301,86.35,77.6101,127.55,118.5
		c27.25,26.8301,53.74,54.4401,80.22,82.04c6.1801-63.38,12.66-126.73,19.01-190.09c10.3201-102.77,20.01-205.65,24.54-308.86
		C1176.52,1165.6801,1176.27,1155.27,1177.55,1144.96z"/>
	<path fill="#4B453B" stroke="#4B453B" stroke-width="0.0938" d="M744.47,1223.4c1.28-0.1901,2.19,0.28,2.7,1.41
		c4.41,9.96,7.07,20.5699,10.39,30.9099c0.2,3.02,0.83,6,2,8.8c3.04,14.4,5.47,28.96,6.45,43.65
		c1.06,11.8999,0.68,23.86,0.88,35.7999c-0.17,15.91,0.18,31.87-1.27,47.73c-0.71,10.74-2.83,21.4301-1.99,32.2301
		c-0.24-2.37-0.51-4.7201-0.87-7.05c-0.27,5.73-0.81,11.4399-1.76,17.1c-2.93,23.27-6.61,46.42-9.76,69.66
		c-2,10.84-4.05,21.67-6.2,32.48c-1.93,11.9301-4.89,23.9-3.44,36.08c-0.18-2.2799-0.44-4.5399-1.05-6.71
		c-0.53,4.75-2.37,10.77,1.54,14.59l0.04,0.3c-3.76-1.97-3.23-6.8-3.75-10.37c-0.87-24.4301,2.57-48.72,3.94-73.0601
		c1.16-26.0699,4.01-52.0399,6.12-78.0399c1.3-9.6,1.68-19.29,2.92-28.9c0.86-14.98,2.89-29.87,3.15-44.88
		c1.71-15.55,1.03-31.24,1.06-46.85c-0.03-6.4501,0.12-12.91-0.88-19.28c-0.37-10.51-2.02-20.89-3.63-31.25
		C749.6,1239.46,747.85,1231.15,744.47,1223.4z"/>
	<path fill="#2074B4" stroke="#2074B4" stroke-width="0.0938" d="M757.56,1255.72c1.76,2.61,2.55,5.65,2,8.8
		C758.39,1261.72,757.76,1258.74,757.56,1255.72z"/>
	<path fill="#0084E6" stroke="#0084E6" stroke-width="0.0938" d="M744.46,1300.66c2.92-0.3101,5.84-0.8201,8.58-1.92
		c0.63-0.12,1.9-0.35,2.53-0.46c-0.03,15.61,0.65,31.2999-1.06,46.85c-0.26,15.01-2.29,29.9-3.15,44.88
		c-1.24,9.61-1.62,19.3-2.92,28.9c-6.76,15.9-15.95,31.0499-28.3,43.25c-5.33,5.5699-9.45,12.4199-16.03,16.6899
		c-0.74-0.83-1.47-1.62-2.21-2.41c0.23-0.5,0.69-1.5099,0.92-2.0199c-10.18,0.4299-20.66-0.3301-30.25-4.01
		c-1.74-0.63-3.6-0.76-5.4-0.9c-15.35-6.38-28.26-17.17-40.25-28.4401c-15.63-15.1399-29.71-31.7699-43.26-48.75
		c-6.1299-7.8899-12.94-15.36-18.0099-23.98c-2.05-5.6799-5.07-11.0499-6.1-17.0499c41.89-12.64,82.95-28.5,126.05-36.7101
		c11.15-1.6,21.92-5.0299,32.73-8.09c5.75-1.58,11.79-1.73,17.54-3.3l1.12-0.33c2.5-0.66,5.04-1.1,7.61-1.4399
		C744.57,1301.23,744.5,1300.85,744.46,1300.66z"/>
	<path fill="#4C453A" stroke="#4C453A" stroke-width="0.0938" d="M723.35,1303.3199c4.13-1.0299,8.35,0.5801,12.52-0.13
		c-5.75,1.5701-11.79,1.7201-17.54,3.3c-10.81,3.0601-21.58,6.49-32.73,8.09c-43.1,8.2101-84.16,24.0701-126.05,36.7101
		c-2.92,0.8199-5.85,1.5599-8.73,2.51c-26.03,7.97-52.33,15.0499-78.86,21.1699c-27.77,6.37-55.98,11.04-84.42,13.04l-0.68,0.04
		l-1.37,0.09c-19.19,0.77-38.48,0.7999-57.59-1.39c-38.23-3.99-75.63-16.23-108.54-36.14c-12.45-7.65-24.72-15.83-35.52-25.7
		c6.25,4.1799,12.44,8.45,18.95,12.24c4.16,2.7999,8.85,4.66,13.19,7.16c4.48,2.21,8.57,5.1499,13.19,7.11
		c19.38,8.9099,39.8,15.76,60.83,19.47c36.22,7.11,73.48,6.63,109.99,2.17c47.59-6.17,94.27-17.66,140.66-29.65
		c8.4-2.48,17.08-3.78,25.39-6.54c10.68-2.8199,21.25-5.98,31.94-8.75c21.69-5.29,43.31-11.09,65.36-14.79
		c13.42-2.64,27.12-3.21,40.55-5.74C710.38,1306.1899,716.85,1304.6899,723.35,1303.3199z"/>
	<path fill="#BBB1AF" stroke="#BBB1AF" stroke-width="0.0938" d="M550.82,1353.8c2.88-0.9501,5.81-1.6901,8.73-2.51
		c1.03,6,4.05,11.37,6.1,17.0499l0.34,0.8201c-0.54-0.27-1.62-0.8201-2.16-1.1c13.76,31.1499,29.7,62.59,55.44,85.6599
		c17.38,15.8301,40.36,26.53,64.21,25.5801c2.43,0.6899,4.82,1.48,7.29,2.0699c2.85,0.28,5.75,0.2,8.57-0.37
		c4.45,5.4301,9.45,11.47,9.15,18.9399c-0.49,8.04-6.1,14.51-11.64,19.8501c-5.65,5.13-11.98,9.99-19.42,12.13
		c4.72-4.53,9.41-9.4301,11.53-15.77c-4.16,6.72-10.09,12.5599-17.58,15.39c-11.88,4.59-25.05,3.14-37.13,0.1599
		c-15.42-4.0399-30.02-10.6499-44.19-17.83c-33.1-17.23-64.15-38.01-95.18-58.64c-3.51-2.38-7.29-5.51-7.6-10.0599
		c-0.61-7.77,3.97-14.61,8.09-20.78c14.7-20.6801,34.35-37.22,49.38-57.63c1.8-2.9301,4.66-5.62,4.72-9.25
		c0.84-1.27,1.69-2.52,2.54-3.76L550.82,1353.8z"/>
	<path fill="#4C453B" stroke="#4C453B" stroke-width="0.0938" d="M502.51,1402.4c15.34-15.28,33.55-27.73,46.96-44.89
		c-0.06,3.63-2.92,6.3199-4.72,9.25c-15.03,20.41-34.68,36.95-49.38,57.63c-4.12,6.17-8.7,13.01-8.09,20.78
		c0.31,4.5499,4.09,7.6799,7.6,10.0599c31.03,20.63,62.08,41.41,95.18,58.64c14.17,7.1801,28.77,13.79,44.19,17.83
		c12.08,2.9801,25.25,4.4301,37.13-0.1599c7.49-2.8301,13.42-8.67,17.58-15.39c-2.12,6.34-6.81,11.24-11.53,15.77
		c-5.45,3.22-11.2,6.1-17.49,7.2c-9.21,2-18.67,1.08-27.97,0.28c-0.41,0.45-1.24,1.35-1.65,1.7899c0.4-0.5499,1.2-1.6399,1.6-2.1899
		c-1.52-0.17-3.02-0.35-4.52-0.52c-10.26-1.88-20.2-5.09-29.84-9.03c-13.88-4.26-26.76-11.0699-39.66-17.59
		c-25.38-13.8099-49.46-29.9-72.66-47.1c-4.11-3.08-7.11-7.37-9.12-12.0601c3.9,26.53,8.24,53.2001,7.5,80.1101
		c5.89-4.04,11.6-8.4501,18.26-11.2201c11.31-5.1899,23.77-7.39,36.14-7.99c6.05-0.37,12.18-0.12,18.16-1.2999
		c-5.68,7.11-15.04,9.1499-22.83,13.11c-13.41,6.3199-28.11,8.85-42.61,11.33c-2.57,0.63-5.47,0.77-7.71,2.29
		c-1.11,2.7999-0.5,5.98-0.99,8.9399c-1.11,7.5701-3.26,15.15-7.38,21.66c-3.85,4.5-8.06,8.98-13.58,11.41
		c-3.92,2.27-8.36,3.21-12.69,4.33c-16.5,5.29-34.52,3.38-50.68-2.16c-7.37-3.4199-14.26-8.39-18.55-15.4099
		c-2.81-5.03-3.83-10.88-3.45-16.5901c0.27-12.3099,1.19-24.58,1.88-36.86c1.39-17.12,4.01-34.12,4.78-51.28
		c1.37-8.5599,1.58-17.22,2.28-25.84c1.13-14.99,1.28-30.03,0.95-45.0499c2.24,5.11,2.22,10.7599,2.78,16.22
		c4.02,45.45,0.27,91.0699,0.57,136.59c0.35,5.67-0.62,12.0701,3.17,16.86c5.96,7.54,15.82,10.23,24.9,11.67
		c13.71,1.4,28.54,0.48,40.58-6.85c5.59-3.0601,8.42-9.05,10.06-14.92c6.01-21.03,4.81-43.1899,4.01-64.79
		c-0.19-14.02-2.16-27.95-2.36-41.97c-0.94-18.01-0.19-36.09-2.05-54.0599c1.57,5.1899,1.98,10.6599,3.94,15.75
		c0.05,12.5399,2.38,24.8999,3.39,37.37C476.85,1426.54,490.4,1413.9301,502.51,1402.4z"/>
	<path fill="#4C453B" stroke="#4C453B" stroke-width="0.0938" d="M563.83,1368.0601c0.54,0.2799,1.62,0.83,2.16,1.1l-0.34-0.8201
		c5.0699,8.62,11.88,16.0901,18.0099,23.98c13.55,16.9801,27.63,33.6101,43.26,48.75c11.99,11.27,24.9,22.0601,40.25,28.4401
		c8.05,5.46,18.32,4.9399,27.38,7.4399c-3.68,0.8301-7.42,1.39-11.07,2.3501c-23.85,0.95-46.83-9.75-64.21-25.5801
		C593.53,1430.65,577.59,1399.21,563.83,1368.0601z"/>
	<path fill="#757B8B" stroke="#757B8B" stroke-width="0.0938" d="M387.54,1388.01c28.44-2,56.65-6.67,84.42-13.04
		c-0.55,10.5601-0.4,21.14-0.76,31.7101c-1.96-5.0901-2.37-10.5601-3.94-15.75c1.86,17.97,1.11,36.0499,2.05,54.0599
		c0.2,14.02,2.17,27.95,2.36,41.97c0.8,21.6001,2,43.76-4.01,64.79c-1.64,5.87-4.47,11.86-10.06,14.92
		c-12.04,7.33-26.87,8.25-40.58,6.85c-9.08-1.4401-18.94-4.13-24.9-11.67c-3.79-4.7899-2.82-11.1899-3.17-16.86
		c-0.3-45.52,3.45-91.14-0.57-136.59c-0.56-5.4601-0.54-11.11-2.78-16.22c0.32-0.3301,0.96-1,1.28-1.3301
		C387.05,1390.14,387.37,1388.72,387.54,1388.01z"/>
	<path fill="#978C7A" stroke="#978C7A" stroke-width="0.0938" d="M386.86,1388.05l0.68-0.04c-0.17,0.71-0.49,2.13-0.66,2.84
		C386.09,1389.97,386.08,1389.04,386.86,1388.05z"/>
	<path fill="#4C453A" stroke="#4C453A" stroke-width="0.0938" d="M346.06,1407.89c4.84-3.33,11.44-3.23,16.46-0.34
		c6.78,3.8099,11.62,10.24,15.59,16.7799c-5.81-1.84-9.86-6.97-15.72-8.76c-4.14-2.0199-9.86-0.3899-11.65,4.01
		c-3.2,8.42-2.75,17.5801-2.62,26.42c0.06,6.78,1.32,13.46,2.53,20.12c1.45,7.77,3.44,15.58,7.12,22.63
		c2.09,4.02,5.08,7.4399,8.09,10.79c0.13,0.27,0.38,0.7999,0.51,1.0699c-9.63-3.54-16.7-11.65-21.89-20.21
		c-9.18-15.5701-13.11-34.47-9.8-52.3201C336.26,1420.47,339.32,1412.37,346.06,1407.89z"/>
	<path fill="#495263" stroke="#495263" stroke-width="0.0938" d="M350.74,1419.58c1.79-4.3999,7.51-6.0299,11.65-4.01
		c5.86,1.79,9.91,6.92,15.72,8.76c2.15,4.3101,4.26,8.65,6.54,12.9c-0.7,8.62-0.91,17.28-2.28,25.84
		c-0.77,17.16-3.39,34.16-4.78,51.28c-3.75-4.5399-6.19-10.48-11.22-13.74c-0.13-0.27-0.38-0.7999-0.51-1.0699
		c-1.77-4.2101-5.15-7.41-8.09-10.79c-3.68-7.05-5.67-14.86-7.12-22.63c-1.21-6.66-2.47-13.34-2.53-20.12
		C347.99,1437.16,347.54,1428,350.74,1419.58z"/>
	<path fill="#1F6E9C" stroke="#1F6E9C" stroke-width="0.0938" d="M667.17,1469.51c1.8,0.14,3.66,0.27,5.4,0.9
		c9.59,3.6799,20.07,4.4399,30.25,4.01c-0.23,0.51-0.69,1.5199-0.92,2.0199c-3.62,1.64-7.61,1.9901-11.4901,2.5901
		c0.09,0.59,0.27,1.76,0.36,2.34c-2.47-0.59-4.86-1.38-7.29-2.0699c3.65-0.9601,7.39-1.52,11.07-2.3501
		C685.49,1474.45,675.22,1474.97,667.17,1469.51z"/>
	<path fill="#0981DB" stroke="#0981DB" stroke-width="0.0938" d="M690.41,1479.03c3.88-0.6,7.8701-0.9501,11.4901-2.5901
		c0.74,0.79,1.47,1.5801,2.21,2.41c-1.55,0.8-3.15,1.5-4.77,2.15c-2.82,0.5699-5.72,0.65-8.57,0.37
		C690.68,1480.79,690.5,1479.62,690.41,1479.03z"/>
	<path fill="#FEFEFE" stroke="#FEFEFE" stroke-width="0.0938" d="M357.77,1488.75c2.94,3.38,6.32,6.58,8.09,10.79
		C362.85,1496.1899,359.86,1492.77,357.77,1488.75z"/>
	<path fill="#495263" stroke="#495263" stroke-width="0.0938" d="M556.18,1512.3c0.43-0.1101,1.29-0.3301,1.72-0.4401
		c12.9,6.52,25.78,13.33,39.66,17.59c9.64,3.9401,19.58,7.15,29.84,9.03c-1.66,1.79-3.82,3.37-4.42,5.89
		c-1.41,0.83-2.85,1.63-4.28,2.4401c-0.7-0.13-2.1-0.3701-2.8-0.4901c-6.95,3.8-13.83,7.9501-21.42,10.3601
		c-9.99,4.5599-19.74,9.61-29.93,13.72c-1.76,0.6-3.36,1.5699-4.76,2.7999c-22.25,9.4401-44.66,18.62-67.73,25.87
		c-2.98,0.6801-1.76,4.52,0.61,5.14c8.58,3.65,17.53,6.4,26.21,9.8501c6.65,2.62,13.09,5.7699,19.89,8.0299
		c9.55,5.15,19.79,8.8401,29.53,13.61c7.97,4.3601,16.59,7.52,24.19,12.5901c3.82,2.1899,7.61,4.47,11.57,6.4399
		c9.32,3.4,17.28,9.52,25.94,14.27c16.29,8.78,30.77,20.39,45.23,31.84c6.23,5.75,13.08,10.9601,18.06,17.92
		c5.44,6.58,10.05,13.88,13.2401,21.8199c1.65,4.4,2.5,9.49,0.84,14.01c-3.24,5.41-9.85,7.15-15.69,7.99
		c-10.42,1.11-20.88-0.96-30.77-4.14c-8.3199-1.58-15.83-5.5499-23.5099-8.9099c-5.9301-3-12.22-5.38-17.66-9.25
		c-4.97-3.49-10.67-5.76-15.66-9.22C577.36,1715.14,552,1697.1,526.25,1679.7c-4.39-2.8999-8.09-6.7999-12.99-8.88
		c-7.02-3.98-14.57-6.85-21.92-10.1399c-11.84-4.9501-24.39-8.67-37.29-9.12c-10.93-0.89-22.15,0.8199-32.12,5.46
		c-8.2,3.09-14.76,9.0499-21.54,14.38c-7.1,4.97-11.29,12.77-16.83,19.22c-6.24,8.16-11.44,17.05-17.71,25.1901
		c-5.21,8.0199-10.67,15.97-14.57,24.75c-1.87,3.85-4.67,7.1399-6.99,10.73c-3.21,5.35-7.98,9.5499-10.93,15.09
		c-5.96,7.66-11.57,15.63-18.13,22.8099c-5.66,6.66-12.26,12.4301-18.43,18.6101c-6.24,5.1899-12.29,10.88-19.75,14.2799
		c-7.81,4.17-17.04,6.62-25.85,4.7201c-3.78-1.1101-7.65-2.12-11.21-3.8201c-3.84-4.34-6.14-10.12-5.86-15.95
		c0.16-13.62,6.41-26.62,15.42-36.62c7.29-9.05,14.32-18.29,21.04-27.77c10.04-14.6801,23.26-26.71,35.2-39.78
		c13.4-14.36,26.69-28.88,38.4-44.6899c9.16-10.78,17.46-23.01,20.08-37.17c0.69-5.83-2.03-12.1899-7.26-15.1
		c-5.6-3.86-12.59-3.87-19.06-4.72c-14.63-1.5601-29.27,0.3099-43.89,0.84c-17.72,1.5599-35.39,3.73-53.07,5.72
		c-18.01,0.63-35.94,2.62-53.99,2.55c-23.7,0.0299-47.56-0.11-70.99-4.0701c-15.43-1.09-30.66-5.01-44.7-11.51
		c-3.9-1.84-8.92-2.85-11.1-6.97c-1.92-4.83,2.29-9,5.07-12.45c12.41-12.9401,29.41-20.77,46.87-24.15
		c12.09-2.71,24.53-2.75,36.85-2.52c7.37-0.29,14.63,1.2,21.98,1.39c7.38,0.28,14.66,1.71,22.03,2.0699
		c5.68,0.26,11.29,1.2301,16.95,1.7201c4.51,0.3999,9.07,0.22,13.56,0.9199c5.76,0.9601,11.63,0.55,17.4,1.52
		c25.31,2.28,50.78,3.79,76.19,2.52c0.97-0.01,1.94-0.03,2.91-0.04c1.08-0.11,2.14-0.3199,3.18-0.61c3.97-0.7,8-1.15,11.8-2.54
		c13.63-0.9099,27.09-3.33,40.71-4.36c-0.38,5.7101,0.64,11.5601,3.45,16.5901c4.29,7.0199,11.18,11.99,18.55,15.4099
		c16.16,5.54,34.18,7.4501,50.68,2.16c4.33-1.12,8.77-2.0599,12.69-4.33c5.52-2.4301,9.73-6.91,13.58-11.41
		c4.12-6.51,6.27-14.09,7.38-21.66c0.49-2.96-0.12-6.14,0.99-8.9399c2.24-1.52,5.14-1.66,7.71-2.29c14.5-2.48,29.2-5.01,42.61-11.33
		C541.14,1521.45,550.5,1519.41,556.18,1512.3z"/>
	<path fill="#4C453B" stroke="#4C453B" stroke-width="0.0938" d="M91.11,1550.4301c16.56-5.9901,34.33-7.75,51.84-7.6101
		c15.78,1.1101,31.51,2.8,47.21,4.78c47.73,5.8301,95.92,11.52,144.06,7.72c-5.42,1.7001-11.17,1.77-16.8,1.9
		c0.87,0.4601,1.74,0.9601,2.6,1.5c-0.97,0.01-1.94,0.03-2.91,0.04l-0.45-1.26c-25.24,1.29-50.55,0.5601-75.74-1.26
		c-5.77-0.97-11.64-0.5599-17.4-1.52c-4.49-0.7-9.05-0.52-13.56-0.9199c-5.66-0.49-11.27-1.4601-16.95-1.7201
		c-7.37-0.36-14.65-1.7899-22.03-2.0699c-7.35-0.1901-14.61-1.6801-21.98-1.39c-12.32-0.23-24.76-0.1899-36.85,2.52
		c-17.46,3.38-34.46,11.21-46.87,24.15c-2.78,3.45-6.99,7.62-5.07,12.45c2.18,4.12,7.2,5.13,11.1,6.97
		c14.04,6.5,29.27,10.42,44.7,11.51c23.43,3.9601,47.29,4.1,70.99,4.0701c18.05,0.0699,35.98-1.92,53.99-2.55
		c17.68-1.99,35.35-4.16,53.07-5.72c14.62-0.53,29.26-2.4,43.89-0.84c6.47,0.85,13.46,0.86,19.06,4.72
		c5.23,2.91,7.95,9.27,7.26,15.1c-2.62,14.16-10.92,26.39-20.08,37.17c-11.71,15.8099-25,30.33-38.4,44.6899
		c-11.94,13.0701-25.16,25.1-35.2,39.78c-6.72,9.48-13.75,18.72-21.04,27.77c-9.01,10-15.26,23-15.42,36.62
		c-0.28,5.83,2.02,11.61,5.86,15.95c3.56,1.7001,7.43,2.71,11.21,3.8201c8.81,1.8999,18.04-0.55,25.85-4.7201
		c7.46-3.3999,13.51-9.09,19.75-14.2799c6.17-6.1801,12.77-11.9501,18.43-18.6101c6.56-7.1799,12.17-15.1499,18.13-22.8099
		c2.95-5.54,7.72-9.74,10.93-15.09c2.32-3.5901,5.12-6.88,6.99-10.73c3.9-8.78,9.36-16.7301,14.57-24.75
		c6.27-8.14,11.47-17.03,17.71-25.1901c5.54-6.45,9.73-14.25,16.83-19.22c6.78-5.3301,13.34-11.29,21.54-14.38
		c9.97-4.64,21.19-6.35,32.12-5.46c12.9,0.45,25.45,4.1699,37.29,9.12c7.35,3.2899,14.9,6.1599,21.92,10.1399
		c4.9,2.0801,8.6,5.9801,12.99,8.88c25.75,17.4,51.11,35.4401,77.83,51.3601c4.99,3.46,10.69,5.73,15.66,9.22
		c5.44,3.87,11.73,6.25,17.66,9.25c7.68,3.36,15.19,7.33,23.5099,8.9099c9.89,3.1801,20.35,5.25,30.77,4.14
		c5.84-0.84,12.45-2.58,15.69-7.99c1.66-4.52,0.81-9.61-0.84-14.01c-3.19-7.9399-7.8-15.24-13.2401-21.8199
		c-4.98-6.96-11.83-12.17-18.06-17.92c-14.46-11.45-28.94-23.0599-45.23-31.84c-8.66-4.75-16.62-10.87-25.94-14.27
		c-3.96-1.97-7.75-4.25-11.57-6.4399c-7.6-5.0701-16.22-8.23-24.19-12.5901c-9.74-4.7699-19.98-8.46-29.53-13.61
		c1.12-1.2999,2.25-2.6,3.39-3.86c25.39,10.38,50.27,22,74.41,35.04c26.23,14.27,51.97,29.97,74.24,50.02
		c8.56,7.5299,15.47,16.77,21.01,26.7c3.96,7.15,6.72,15.2,6.01,23.49c-1.48,8.11-8.61,13.5-15.73,16.6
		c-11.88,4.8-25.09,3.24-37.2599,0.5c-4.9,6.4401-8.7401,13.8501-10.26,21.86c-0.88,5.7201-0.54,12.03,2.85,16.9601
		c5.06,7.77,14.58,11.63,23.63,11.5499c12.45,0.51,24.32-6.73,31.03-16.97c6.6-9.49,9.49-20.83,11.74-32
		c1.3,5.11,0.18,10.5,1.77,15.59c-1.94,9.88-3.53,20.2001-9.36,28.7001c-7.27,11.5599-20.55,18.98-34.19,19.1899
		c-13.08,0.42-26.71-5.7999-33.43-17.3099c-5.79-9.63-4.99-22.2001,0.68-31.6901c3.27-6.24,8.95-10.6799,12.64-16.61
		c-11.68-3.2899-22.96-7.85-33.92-13.02c-31.89-15.0499-61.28-34.74-90.55-54.25c-13.55-8.95-26.66-18.7799-41.52-25.5
		c-16.13-7.6599-33.9-13.75-51.99-12.0599c-11.97,1.1899-23.08,6.95-31.93,14.9399c-13.02,11.67-22.64,26.4701-32.06,41.0601
		c-17.06,27.1699-33.54,54.95-54.8,79.14c-12.17,14.0499-25.93,27.25-42.75,35.5699c4.14,6.3101,3.39,14.0601,3.14,21.23
		c-0.57,11.38-6.35,22.2201-15.01,29.54c-13.26,11.51-33.26,15.77-49.54,8.47c-11.14-4.87-19.04-15.88-20.6-27.88
		c-2.65-17.6699,4.29-34.9399,12.46-50.23c-0.79,4.83-2.14,9.55-2.79,14.42c-1.77,11.34-2.38,23.28,1.43,34.2999
		c2.3,6.62,7,12.51,13.42,15.53c9.2,4.4501,20.03,3.5601,29.47,0.3101c9.28-3.41,17.64-9.92,22.23-18.79
		c4.25-7.8101,4.58-16.9301,3.89-25.59c-7.98,2.5-16.03,5.38-24.53,5.22c-9.36,0.1899-18.85-3.0701-25.74-9.49
		c-5.54-5.1801-8.78-12.4301-9.98-19.84c-1.55-10.16,0.9-20.51,4.93-29.8201c5.21-12.23,14.07-22.2999,22.01-32.77
		c6.47-8.2899,12.33-17.0399,18.91-25.24c4.87-6.1,10.42-11.59,15.78-17.24c15.21-15.83,30.61-31.52,44.77-48.3099
		c8.86-10.9601,18.43-21.8101,23.87-34.9801c0.93-2.63,2.76-6.8099-0.53-8.48c-5.26-2.59-11.31-2.6799-17.03-3.22
		c-24.38-1.05-48.71,1.5699-72.94,3.92c-28.21,3.1-56.64,3.96-85,3.4099c-24.12-0.71-48.36-2.3199-72-7.4099
		c-3-0.79-6.03-1.4-9.11-1.74c3.39,5.6699,5.65,11.88,8.74,17.6899c-0.32,4.63,0.65,9.45-1.14,13.9
		c-2.34,6.73-8.75,11.12-15.41,12.9c-11.26,2.95-23.18,1.39-34.27-1.5601c-14.38-4.21-28.29-11.26-38.9-21.99
		c-5.43-5.51-10.17-12.9299-9.07-20.99c0.5-5.1,4.48-8.61,7.89-11.97c8.92-3.72,18.49-6.0701,28.21-5.72
		c-8.57,2.96-17.77,5.72-24.32,12.34c-2.49,2.3199-3.37,6.25-1.71,9.3199c1.93,3.5901,5.13,6.28,8.3,8.76
		c8.16,6.05,17.43,10.42,26.86,14.0801c10.27,3.62,20.88,7.2599,31.92,6.9299c3.97,0.02,8.23-0.74,11.21-3.5599
		c3.09-2.79,4.01-7.16,4-11.15c-0.08-6.8101-1.91-13.48-4.5-19.73c-7.59-2.2001-15.21-4.3601-22.42-7.64
		c-4.46-2.04-9.15-3.9-12.88-7.16c-2.75-2.39-4.01-5.96-4.75-9.42c0.35-8.22,6.71-13.9399,11.38-20.0299
		C70.54,1558.08,81,1553.91,91.11,1550.4301z"/>
	<path fill="#444749" stroke="#444749" stroke-width="0.0938" d="M594.48,1556.6801c7.59-2.41,14.47-6.5601,21.42-10.3601
		c0.7,0.12,2.1,0.3601,2.8,0.4901c-16.86,10.6799-35,19.08-53.23,27.1399c-0.9-0.5299-1.79-1.0299-2.67-1.51
		c-1.01,0.2301-2.01,0.4801-3.01,0.76c1.4-1.23,3-2.2,4.76-2.7999C574.74,1566.29,584.49,1561.24,594.48,1556.6801z"/>
	<path fill="#FEFEFE" stroke="#FEFEFE" stroke-width="0.0938" d="M240.92,1556.24c25.19,1.8201,50.5,2.55,75.74,1.26l0.45,1.26
		C291.7,1560.03,266.23,1558.52,240.92,1556.24z"/>
	<path fill="#AAD5F0" stroke="#AAD5F0" stroke-width="0.0938" d="M740.55,1565.49c0.61,2.17,0.87,4.4301,1.05,6.71
		c0.19,2.6101,0.36,5.2301,0.4901,7.88C738.18,1576.26,740.02,1570.24,740.55,1565.49z"/>
	<path fill="#49453E" stroke="#49453E" stroke-width="0.0938" d="M559.79,1573.2c1-0.2799,2-0.5299,3.01-0.76
		c0.88,0.4801,1.77,0.9801,2.67,1.51c-13.11,5.78-26.31,11.37-39.43,17.15c-8.28,3.6901-16.66,7.24-24.4,12.01
		c13.6,4.79,27.2,9.59,40.52,15.12c-1.14,1.26-2.27,2.5601-3.39,3.86c-6.8-2.26-13.24-5.4099-19.89-8.0299
		c-8.68-3.4501-17.63-6.2001-26.21-9.8501c-2.37-0.62-3.59-4.46-0.61-5.14C515.13,1591.8199,537.54,1582.64,559.79,1573.2z"/>
	<path fill="#BBB1AF" stroke="#BBB1AF" stroke-width="0.0938" d="M782.99,1591.55c31.74,0.95,64.48-3.8301,92.59-19.3301
		c-1.56,19.35-2.93,38.73-4.85,58.0601c-0.41-1.11-0.82-2.1801-1.24-3.23c-2.74,21.3099-5.37,42.6399-8.55,63.88
		c-22.58,5.7-45.66,9.8199-68.98,10.5c-11.04,0.23-22.26-0.4-32.9-3.5601c-5.12-1.64-10.57-3.47-14.13-7.73
		c-5.51-6.38-7.24-14.98-8.39-23.09c-2.92-24.4701,2.22-48.9301,1.59-73.41c0.11-3.55,0.9-7.34,4.56-8.8101
		c0.2,0.6901,0.44,1.39,0.72,2.1001c3.05,3.08,7.59,2.62,11.56,2.8199C764.32,1590.12,773.61,1591.51,782.99,1591.55z"/>
	<path fill="#757B8B" stroke="#757B8B" stroke-width="0.0938" d="M28.4,1589.64c7.62-1.98,15.47-2.87,23.29-3.5601
		c0.74,3.4601,2,7.03,4.75,9.42c3.73,3.26,8.42,5.12,12.88,7.16c7.21,3.2799,14.83,5.4399,22.42,7.64
		c2.59,6.25,4.42,12.9199,4.5,19.73c0.01,3.99-0.91,8.36-4,11.15c-2.98,2.8199-7.24,3.58-11.21,3.5599
		c-11.04,0.33-21.65-3.3099-31.92-6.9299c-9.43-3.66-18.7-8.03-26.86-14.0801c-3.17-2.48-6.37-5.1699-8.3-8.76
		c-1.66-3.0699-0.78-7,1.71-9.3199c6.55-6.62,15.75-9.38,24.32-12.34c-9.72-0.3501-19.29,2-28.21,5.72
		C15.99,1594.01,22.22,1591.34,28.4,1589.64z"/>
	<path fill="#4C453B" stroke="#4C453B" stroke-width="0.0938" d="M738.13,1593.64c0.63,24.48-4.51,48.9399-1.59,73.41
		c1.15,8.11,2.88,16.71,8.39,23.09c3.56,4.26,9.01,6.09,14.13,7.73c10.64,3.16,21.86,3.79,32.9,3.5601
		c23.32-0.6801,46.4-4.8,68.98-10.5c-0.8,4.9399-1.45,9.8999-2.19,14.86c-0.96,0.23-1.9,0.47-2.83,0.72
		c-12.47,2.65-25.12,4.5-37.82,5.58c-18.84,1.4601-38.16,1.66-56.52-3.4199c-8.31-2.39-17.03-5.64-22.54-12.67
		c-7.14-8.97-8.68-20.89-8.85-31.99C729.59,1640.27,735.59,1617.11,738.13,1593.64z"/>
	<path fill="#747A87" stroke="#747A87" stroke-width="0.0938" d="M93.93,1611.05c3.08,0.34,6.11,0.95,9.11,1.74l-1.96-0.39
		c2.01,5.1899,2.93,10.85,1.59,16.34C99.58,1622.9301,97.32,1616.72,93.93,1611.05z"/>
	<path fill="#757B8B" stroke="#757B8B" stroke-width="0.0938" d="M717.83,1753.48c8.77,8.72,10.6,22.48,7.77,34.09
		c-1.59-5.09-0.47-10.48-1.77-15.59c-2.25,11.17-5.14,22.51-11.74,32c-6.71,10.24-18.58,17.48-31.03,16.97
		c-9.05,0.0801-18.57-3.7799-23.63-11.5499c-3.39-4.9301-3.73-11.24-2.85-16.9601c1.52-8.0099,5.36-15.4199,10.26-21.86
		c12.17,2.74,25.3799,4.3,37.2599-0.5C709.22,1766.98,716.35,1761.59,717.83,1753.48z"/>
	<path fill="#757B8B" stroke="#757B8B" stroke-width="0.0938" d="M220.27,1812.9301c1.2,7.4099,4.44,14.6599,9.98,19.84
		c6.89,6.4199,16.38,9.6799,25.74,9.49c8.5,0.16,16.55-2.72,24.53-5.22c0.69,8.6599,0.36,17.7799-3.89,25.59
		c-4.59,8.87-12.95,15.38-22.23,18.79c-9.44,3.25-20.27,4.14-29.47-0.3101c-6.42-3.02-11.12-8.91-13.42-15.53
		c-3.81-11.0199-3.2-22.96-1.43-34.2999c2.35-6.0901,5.84-11.65,10.25-16.4401C220.32,1814.36,220.29,1813.41,220.27,1812.9301z"/>
</g>
</svg>
